<?xml version="1.0" encoding="utf-8"?>
<!-- Generator: Adobe Illustrator 17.0.0, SVG Export Plug-In . SVG Version: 6.00 Build 0)  -->
<!DOCTYPE svg PUBLIC "-//W3C//DTD SVG 1.1//EN" "http://www.w3.org/Graphics/SVG/1.1/DTD/svg11.dtd">
<svg version="1.1" id="Layer_1" xmlns="http://www.w3.org/2000/svg" xmlns:xlink="http://www.w3.org/1999/xlink" x="0px" y="0px"
	 width="1264px" height="736px" viewBox="0 0 1264 736" enable-background="new 0 0 1264 736" xml:space="preserve">
<circle fill="#064F68" cx="620.499" cy="364.754" r="362.889"/>
<g>
	<circle opacity="0.6" fill="#028CB9" enable-background="new    " cx="336.813" cy="173.921" r="3.021"/>
	<circle opacity="0.6" fill="#028CB9" enable-background="new    " cx="604.667" cy="214.199" r="3.021"/>
	<circle opacity="0.6" fill="#028CB9" enable-background="new    " cx="738.595" cy="113.502" r="3.021"/>
	<circle opacity="0.6" fill="#028CB9" enable-background="new    " cx="872.522" cy="173.921" r="3.021"/>
	<circle opacity="0.6" fill="#028CB9" enable-background="new    " cx="470.74" cy="153.781" r="3.021"/>
	<circle opacity="0.6" fill="#028CB9" enable-background="new    " cx="397.231" cy="272.604" r="3.021"/>
	<circle opacity="0.6" fill="#028CB9" enable-background="new    " cx="665.086" cy="312.883" r="3.021"/>
	<circle opacity="0.6" fill="#028CB9" enable-background="new    " cx="799.013" cy="212.186" r="3.021"/>
	<circle opacity="0.6" fill="#028CB9" enable-background="new    " cx="932.94" cy="272.604" r="3.021"/>
	<circle opacity="0.6" fill="#028CB9" enable-background="new    " cx="531.158" cy="252.464" r="3.021"/>
	<g opacity="0.6">
		<circle opacity="0.05" fill="#FFFFFF" enable-background="new    " cx="854.864" cy="129.32" r="11.048"/>
		<circle fill="#9FD2E7" cx="854.864" cy="129.32" r="3.907"/>
	</g>
	<g opacity="0.6">
		<circle opacity="0.05" fill="#FFFFFF" enable-background="new    " cx="846.854" cy="206.434" r="22.647"/>
		<circle fill="#9FD2E7" cx="846.854" cy="206.434" r="8.009"/>
		<circle opacity="0.1" fill="#FFFFFF" enable-background="new    " cx="846.854" cy="206.778" r="14.293"/>
	</g>
	<g opacity="0.6">
		<circle opacity="0.05" fill="#FFFFFF" enable-background="new    " cx="631.976" cy="196.102" r="11.048"/>
		<circle fill="#9FD2E7" cx="631.976" cy="196.102" r="3.907"/>
	</g>
	<g opacity="0.6">
		<circle opacity="0.05" fill="#FFFFFF" enable-background="new    " cx="606.431" cy="185.811" r="4.342"/>
		<circle fill="#9FD2E7" cx="606.431" cy="185.811" r="1.535"/>
	</g>
	<g opacity="0.6">
		<circle opacity="0.05" fill="#FFFFFF" enable-background="new    " cx="816.268" cy="168.37" r="13.57"/>
		<circle fill="#9FD2E7" cx="816.268" cy="168.37" r="4.799"/>
	</g>
</g>
<g>
	<circle opacity="0.6" fill="#028CB9" enable-background="new    " cx="915.192" cy="364.483" r="3.021"/>
	<circle opacity="0.6" fill="#028CB9" enable-background="new    " cx="644.566" cy="375.875" r="3.021"/>
	<circle opacity="0.6" fill="#028CB9" enable-background="new    " cx="532.231" cy="500.202" r="3.021"/>
	<circle opacity="0.6" fill="#028CB9" enable-background="new    " cx="389.258" cy="466.354" r="3.021"/>
	<circle opacity="0.6" fill="#028CB9" enable-background="new    " cx="787.538" cy="409.723" r="3.021"/>
	<circle opacity="0.6" fill="#028CB9" enable-background="new    " cx="837.11" cy="279.09" r="3.021"/>
	<circle opacity="0.6" fill="#028CB9" enable-background="new    " cx="566.484" cy="290.481" r="3.021"/>
	<circle opacity="0.6" fill="#028CB9" enable-background="new    " cx="454.149" cy="414.809" r="3.021"/>
	<circle opacity="0.6" fill="#028CB9" enable-background="new    " cx="311.177" cy="380.961" r="3.021"/>
	<circle opacity="0.6" fill="#028CB9" enable-background="new    " cx="709.457" cy="324.329" r="3.021"/>
	<g opacity="0.6">
		<circle opacity="0.05" fill="#FFFFFF" enable-background="new    " cx="415.076" cy="506.783" r="11.048"/>
		<circle fill="#9FD2E7" cx="415.076" cy="506.783" r="3.907"/>
	</g>
	<g opacity="0.6">
		<circle opacity="0.05" fill="#FFFFFF" enable-background="new    " cx="408.275" cy="429.553" r="22.647"/>
		<circle fill="#9FD2E7" cx="408.275" cy="429.553" r="8.009"/>
		<circle opacity="0.1" fill="#FFFFFF" enable-background="new    " cx="408.209" cy="429.215" r="14.293"/>
	</g>
	<g opacity="0.6">
		<circle opacity="0.05" fill="#FFFFFF" enable-background="new    " cx="621.196" cy="398.835" r="11.048"/>
		<circle fill="#9FD2E7" cx="621.196" cy="398.835" r="3.907"/>
	</g>
	<g opacity="0.6">
		<circle opacity="0.05" fill="#FFFFFF" enable-background="new    " cx="648.232" cy="404.081" r="4.342"/>
		<circle fill="#9FD2E7" cx="648.232" cy="404.081" r="1.535"/>
	</g>
	<g opacity="0.6">
		<circle opacity="0.05" fill="#FFFFFF" enable-background="new    " cx="445.541" cy="461.106" r="13.57"/>
		<circle fill="#9FD2E7" cx="445.541" cy="461.106" r="4.799"/>
	</g>
	<circle opacity="0.6" fill="#028CB9" enable-background="new    " cx="659.657" cy="649.015" r="2.187"/>
	<circle opacity="0.6" fill="#028CB9" enable-background="new    " cx="556.137" cy="624.507" r="2.187"/>
	<circle opacity="0.6" fill="#028CB9" enable-background="new    " cx="603.122" cy="587.185" r="2.187"/>
	<circle opacity="0.6" fill="#028CB9" enable-background="new    " cx="499.601" cy="562.677" r="2.187"/>
	<g opacity="0.6">
		<circle opacity="0.05" fill="#FFFFFF" enable-background="new    " cx="496.132" cy="653.78" r="8"/>
		<circle fill="#9FD2E7" cx="496.132" cy="653.78" r="2.829"/>
	</g>
	<g opacity="0.6">
		<circle opacity="0.05" fill="#FFFFFF" enable-background="new    " cx="617.289" cy="510.691" r="16.398"/>
		<circle fill="#9FD2E7" cx="617.289" cy="510.691" r="5.799"/>
		<circle opacity="0.1" fill="#FFFFFF" enable-background="new    " cx="617.241" cy="510.446" r="10.349"/>
	</g>
	<g opacity="0.6">
		<circle opacity="0.05" fill="#FFFFFF" enable-background="new    " cx="518.19" cy="620.707" r="9.825"/>
		<circle fill="#9FD2E7" cx="518.19" cy="620.707" r="3.475"/>
	</g>
</g>
<g>
	<defs>
		<circle id="SVGID_1_" cx="621.811" cy="366.066" r="362.889"/>
	</defs>
	<clipPath id="SVGID_2_">
		<use xlink:href="#SVGID_1_"  overflow="visible"/>
	</clipPath>
	<g opacity="0.2" clip-path="url(#SVGID_2_)">
		<path d="M896.378,513.637c0,0,17.926-21.861,42.847,5.684c24.921,27.544,66.456-3.498,68.642,47.219
			c2.186,50.717-63.833,34.54-69.954,26.233C931.792,584.465,881.075,535.498,896.378,513.637z"/>
		<path d="M897.034,516.151c0,0,25.905,1.967,37.054,19.675c11.149,17.707,59.024,19.675,61.975,12.788s-7.542-11.149-17.379-11.805
			s-28.2-1.64-39.677-12.788C927.529,512.872,916.052,500.411,897.034,516.151z"/>
		<path d="M707.502,528.065c0,0-52.028-7.87-73.889,15.74c0,0-25.358,17.488-17.926,62.521c0,0,41.098,16.614,82.633,13.554
			c0,0,1.749-20.549-4.372-33.665c0,0,30.168,1.749,44.159-1.749S707.502,528.065,707.502,528.065z"/>
		<path d="M710.781,547.63c0,0-22.79-1.982-31.315,13.102c0,0,12.625,52.48-33.283,45.594
			c-42.956-7.214-27.544-41.317-27.544-41.317s6.23-20.986,16.723-23.282c0,0,13.772-21.751,72.14-13.663L710.781,547.63z"/>
		<path d="M824.675,591.461c0,0,66.894,59.898,94.875,46.782c27.982-13.116,20.986-14.865,26.67-27.544
			c5.684-12.679,6.121-82.633-49.405-91.815C841.289,509.702,824.675,591.461,824.675,591.461z"/>
		<path d="M879.326,554.298c0,0,44.158,28.419,47.219,55.526c0,0,13.116-41.317-34.453-72.82L879.326,554.298z"/>
		<path d="M616.124,335.036c1.967-6.777,9.181-27.107,1.53-40.005c-7.651-12.898-27.326-6.558-19.456,2.842c0,0,0.437,2.842,0,4.809
			c0,0-0.604-1.675-1.693-4.253c-0.905-1.69-2.041-3.213-2.971-4.894c-1.133-2.047-2.061-4.267-3.425-6.174
			c-2.874-4.017-6.533-7.095-9.686-10.811c-2.669-3.146-3.59-7.296-6.718-10.143c-2.524-2.298-5.514-3.76-8.532-5.241
			c-2.625-0.687-5.575-1.046-8.729-0.675c-14.37,1.691-17.926,18.8-5.465,19.237c0,0,9.947,8.034,10.766,20.986
			c-7.163-5.139-23.962-20.62-38.247-16.606c1.323,1.992,2.007,5.061,2.468,7.111c0.666,2.956,2.178,5.637,3.188,8.485
			c0.076,0.214,0.158,0.439,0.243,0.671c0.149-0.111,0.342-0.17,0.568-0.134c5.396,0.857,6.813,5.982,7.085,10.748
			c0.023,0.399-0.344,0.707-0.718,0.718c-0.102,0.003-0.2-0.009-0.3-0.01c-0.047,0.055-0.079,0.114-0.137,0.167
			c0,0-17.707,1.749-23.828,11.149c-6.121,9.4-0.437,12.461-0.437,12.461s-4.809,3.88-4.809,9.345
			c0,5.465,4.222,7.314,10.493,10.985c6.722,3.935,17.379,5.902,20.166,1.312c0.328,2.459,1.038,3.716,1.038,3.716
			s5.247,17.27,22.298,17.051c17.051-0.219,57.493-27.326,57.493-27.326S614.157,341.812,616.124,335.036z"/>
		<path d="M561.254,394.005l-4.263-10.329c0,0,16.232-35.742,65.746-33.447l5.083,7.05L561.254,394.005z"/>
		<path d="M561.254,392.529c0,0,12.461-41.098,66.019-35.851c0,0,5.028,5.028-2.186,8.088
			C617.873,367.827,560.38,406.738,561.254,392.529z"/>
		<path d="M565.408,391.655c0,0,12.436-35.523,58.574-31.917l34.552,46.782c0,0,35.196,13.226,45.361,13.226
			c0,0,21.319,21.774,7.872,61.549c0,0-46.784,6-78.154-8.756C633.613,472.539,583.661,432.097,565.408,391.655z"/>
		<g>
			<path d="M715.173,454.431c0.029,0.057,0.12-0.044,0.179-0.069c0-0.001-0.001-0.002-0.001-0.003
				c0.017-0.005,0.033-0.01,0.05-0.015c0.463-0.194,0.937-0.36,1.406-0.537c-0.311-2.099-0.755-3.889-1.258-5.165
				c-1.005-2.549-1.782-5.411-2.613-8.441c-1.564-5.702-3.911-14.319-7.14-14.449c-11.604-0.467-43.278-11.797-46.855-13.088
				c-0.875-0.315-1.607-0.802-2.279-1.429c-11.806-11.027-29.038-36.839-34.777-45.574c-0.851-0.028-2.263-0.042-2.263-0.042h-0.266
				c-19.071,0.002-31.251,7.4-38.575,14.62c4.168,6.524,33.454,51.375,62.371,70.002c0,0,42.017,6.446,71.401,3.279
				C714.591,453.491,714.716,453.52,715.173,454.431z"/>
		</g>
		<path d="M708.139,481.393c-3.244-8.316-15.795-46.171,17.014-62.889l-3.746-0.837c0,0-35.006,12.636-16.262,63.726H708.139z"/>
		<path d="M886.322,350.119c0,0,20.549,29.73,22.298,106.68c1.162,51.143-23.172,132.475-113.675,141.657
			s-99.247-80.01-80.01-132.475c0,0-1.749-20.986-10.493-43.721C696.07,400.494,873.643,329.57,886.322,350.119z"/>
		<path d="M691.239,416.745c0,0-35.765,12.755-15.653,65.755h3.06c0,0-20.634-45.884,16.339-64.723L691.239,416.745z"/>
		<path d="M875.392,444.995l-14.264-54.761l-6.189-16.068l-2.549,1.833c0,0,12.227,15.869,19.067,63.421
			c6.777,47.11,2.424,74.507-21.423,105.915c-19.516,25.702-41.678,33.461-53.672,35.8c-2.381,0.71-4.817,1.547-7.282,2.132
			l2.267,1.626c28.264-2.906,50.434-21.195,61.419-37.755c10.985-16.559,22.298-34.922,24.265-59.188
			C878.999,463.685,875.392,444.995,875.392,444.995z"/>
		<path d="M859.652,371.543c0,0-19.839,21.396-7.706,45.006c12.133,23.609,16.559,24.839,28.364,26.479
			S859.652,371.543,859.652,371.543z"/>
		<path d="M685.204,411.821l6.995,10.876c0,0,45.033,15.302,106.789-14.756c54.061-26.313,91.159-62.631,91.159-62.631
			l-2.077-13.772L685.204,411.821z"/>
		<path d="M854.938,374.166c0,0,25.044,56.4,22.421,103.619s-17.817,94.505-56.455,114.474l-2.896,1.934
			c0,0,97.826-16.505,91.05-155.32c-6.449-73.561-22.189-90.448-22.189-90.448S870.036,363.072,854.938,374.166z"/>
		<path d="M688.155,403.678c0,0-9.837,9.837,4.591,12.133c14.428,2.295,58.696,8.526,107.226-17.379
			c48.531-25.905,88.208-58.04,88.208-65.582c0-7.542-10.165-7.87-10.165-7.87L688.155,403.678z"/>
		<g>
			<path d="M876.047,331.866c-7.87-20.33-22.298-56.073-62.959-122.31c-40.661-66.238-69.517-79.354-142.969-36.07
				s-55.745,80.666-28.856,129.852c26.889,49.186,53.777,102.636,53.777,102.636s46.891,12.788,104.931-19.347
				S876.047,331.866,876.047,331.866z"/>
			<path d="M738.786,148.384c28.961,0,49.424,20.643,74.303,61.172c40.661,66.238,55.089,101.98,62.959,122.31
				c0,0-18.035,22.626-76.075,54.761c-32.318,17.894-61.179,21.858-80.413,21.858c-15.308,0-24.518-2.512-24.518-2.512
				s-26.889-53.449-53.777-102.636c-26.889-49.186-44.596-86.568,28.856-129.852C698.628,156.686,720.416,148.384,738.786,148.384
				 M738.786,143.137c-19.018,0-41.017,7.966-71.329,25.828c-35.626,20.994-52.985,42.247-54.627,66.884
				c-1.454,21.808,9.439,43.679,23.831,70.005c26.536,48.54,53.425,101.943,53.694,102.477l1.051,2.089l2.256,0.615
				c0.404,0.11,10.07,2.697,25.899,2.697c19.292,0,49.344-3.906,82.954-22.515c58.282-32.269,76.873-55.124,77.636-56.081
				l1.877-2.355l-1.087-2.809c-6.773-17.497-20.866-53.905-63.38-123.161c-13.871-22.597-25.179-37.096-36.664-47.011
				C767.909,148.587,754.135,143.137,738.786,143.137L738.786,143.137z"/>
		</g>
		<path d="M672.962,316.673c0,0-16.395,12.543-38.256-1.448c0,0,19.456,38.393,49.186,20.904
			C683.892,336.129,677.771,321.482,672.962,316.673z"/>
		<path opacity="0.3" d="M755.541,151.024c0,0,2.623,19.292,2.131,31.206l-73.233,173.573l-10.165,9.509l-25.905-48.749
			c0,0-22.844-40.551-26.67-54.87c-3.826-14.319-11.75-39.513,19.729-68.041c25.413-22.462,55.909-35.086,67.057-39.185
			C719.635,150.368,741.44,144.957,755.541,151.024z"/>
		<path d="M663.05,336.419c6.979,0.103,12.681-2.817,17.959-6.632c-2.213-4.576-5.338-10.405-8.047-13.114
			c0,0-16.396,12.543-38.256-1.448c0,0,4.158,7.877,11.313,15.432C656.666,340.694,656.406,336.321,663.05,336.419z"/>
		<path d="M664.245,320.097c-5.981,1.662-4.187,8.667-1.867,12.718c2.201,3.842,5.729,6.691,9.832,7.519
			c3.656-0.465,7.555-1.778,11.683-4.206c0,0-6.121-14.647-10.93-19.456c0,0-3.085,2.214-8.498,3.313
			C664.4,320.03,664.333,320.073,664.245,320.097z"/>
		<path d="M664.245,320.097c-5.981,1.662-4.187,8.667-1.867,12.718c0.747,1.304,1.651,2.49,2.675,3.526
			c6.078-0.422,11.194-3.113,15.956-6.555c-2.213-4.576-5.338-10.405-8.047-13.114c0,0-3.085,2.214-8.498,3.313
			C664.4,320.03,664.333,320.073,664.245,320.097z"/>
		<g>
			<path d="M832.564,250.637c0.61,1.063,1.221,2.143,1.832,3.241C833.784,252.777,833.174,251.702,832.564,250.637z"/>
			<path d="M835.553,255.992c0.452,0.828,0.903,1.652,1.355,2.501C836.456,257.642,836.005,256.822,835.553,255.992z"/>
			<path d="M829.865,246.03c0.716,1.193,1.435,2.418,2.153,3.658C831.299,248.446,830.582,247.224,829.865,246.03z"/>
			<path d="M748.163,404.006c-14.756-8.526,1.312-18.035-7.542-28.856c0,0,57.056-5.902,66.894-31.151c0,0,1.863,0.446,6.632,3.9
				c0.362-0.625,2.973-0.852,3.314-1.495c11.295-21.28,5.304-46.195,1.53-68.642c-0.094-0.561,3.623-1.829,0-1.093
				c0.858-7.703-0.021-14.547,3.891-21.333c1.948-3.38,4.339-6.454,6.981-9.307c-50.003-72.105-61.152-71.667-61.152-71.667
				c2.623,7.87,2.186,20.986,2.186,20.986c-14.865-21.423-31.916-19.237-31.916-19.237c2.186,4.809,2.186,11.805,2.186,11.805
				c-15.303-13.991-46.345-10.056-46.345-10.056c11.368,17.051,13.991,43.284,13.991,43.284
				c-20.112-17.926-52.466-11.368-52.466-11.368l1.749,6.558c-7.433-1.312-11.586,0.437-11.586,0.437
				c15.74,12.679,19.019,41.535,19.019,41.535c-20.112-5.247-38.475,2.623-38.475,2.623s15.74,19.237,32.354,48.968
				c26.56,43.461,44.216,89.852,45.837,97.307C714.258,407.969,732.113,406.643,748.163,404.006z"/>
			<path d="M834.396,253.878c0.386,0.695,0.771,1.404,1.157,2.114C835.167,255.284,834.781,254.571,834.396,253.878z"/>
			<polygon points="829.863,246.027 829.863,246.027 829.864,246.029 			"/>
			<path d="M836.908,258.492c0.877,1.652,1.755,3.33,2.632,5.059C838.663,261.822,837.785,260.141,836.908,258.492z"/>
			<path d="M832.018,249.688c0.182,0.315,0.364,0.63,0.546,0.948C832.382,250.319,832.2,250.003,832.018,249.688z"/>
			<path d="M816.024,277.185c0.381-0.242,0.941-0.176,1.036,0.385c3.774,22.447,9.449,47.157-1.846,68.437
				c-0.341,0.643-0.705,1.266-1.067,1.891c4.814,3.486,13.151,15.337,6.593,24.956c18.259-11.628,40.532-27.148,49.663-35.642
				c1.024-1.265,1.49-1.958,1.49-1.958s-1.312-10.493-32.354-71.703c-0.877-1.729-1.755-3.407-2.632-5.059
				c-0.452-0.849-0.903-1.672-1.355-2.501c-0.386-0.709-0.772-1.419-1.157-2.114c-0.611-1.098-1.222-2.179-1.832-3.241
				c-0.182-0.318-0.364-0.634-0.546-0.948c-0.719-1.24-1.437-2.465-2.153-3.658c0,0-0.001-0.002-0.002-0.003
				c-2.643,2.853-5.033,5.927-6.981,9.307C818.97,262.12,816.882,269.482,816.024,277.185z"/>
			<path d="M784.932,392.88c0.023-0.011,0.046-0.022,0.069-0.033"/>
		</g>
		<path d="M799.667,214.014c5.44,8.198,8.1,18.142,9.745,27.943c4.635-1.988,8.958-4.568,13.158-7.361
			c-18.348-26.972-42.672-54.164-49.925-58.265C780.229,182.28,794.483,206.202,799.667,214.014z"/>
		<path d="M801.503,239.942c0,0-7.433,24.921,22.735,45.033l-3.06-15.302c0,0,44.158-24.047,12.242-85.694
			C833.419,183.979,831.67,226.825,801.503,239.942z"/>
		<path d="M817.712,279.098c-1.666-3.173-3.788-7.158-3.399-10.881c0.408-3.905,3.358-5.902,6.138-8.343
			c4.893-4.298,8.896-8.994,12.676-14.283c12.536-17.54,9.407-42.623,0.26-61.062c-0.324,4.991-3.71,43.162-31.885,55.412
			c0,0-6.473,21.736,17.245,40.992C818.398,280.325,818.039,279.721,817.712,279.098z"/>
		<path d="M833.43,258.856c-5.401,0.613-10.724-0.562-14.302-5.544c-5.06-7.046-7.298-15.737-3.568-23.316
			c-3.817,4.032-8.444,7.504-14.057,9.945c0,0-7.433,24.921,22.735,45.033l-3.06-15.302
			C821.177,269.672,827.362,266.303,833.43,258.856z"/>
		<path d="M820.451,259.874c1.009-0.886,1.972-1.794,2.911-2.715c-1.569-0.896-3.008-2.139-4.234-3.846
			c-5.068-7.057-7.306-15.765-3.552-23.351c-3.823,4.044-8.447,7.534-14.074,9.98c0,0-6.473,21.736,17.245,40.992
			c-0.35-0.609-0.709-1.213-1.036-1.836c-1.666-3.173-3.788-7.158-3.399-10.881C814.722,264.312,817.672,262.315,820.451,259.874z"
			/>
		<path d="M691.491,358.498c1.854,8.836,9.015,14.813,15.997,13.348c6.982-1.464,12.896-10.388,11.041-19.225
			c-1.852-8.837-10.769-14.239-17.75-12.775C693.795,341.309,689.638,349.661,691.491,358.498z"/>
		<path d="M740.513,334.917c1.831,8.729,9.875,14.551,16.772,13.104c6.898-1.446,12.446-10.263,10.613-18.993
			c-1.83-8.73-10.344-14.066-17.241-12.621C743.758,317.853,738.681,326.186,740.513,334.917z"/>
		<path d="M739.201,332.106c1.802,8.595,10.165,13.798,16.957,12.373c6.792-1.425,11.935-9.962,10.134-18.557
			c-1.804-8.595-9.869-13.993-16.661-12.568C742.839,314.78,737.398,323.51,739.201,332.106z"/>
		<path d="M690.511,355.422c1.824,8.7,10.289,14.265,17.164,12.823c6.875-1.443,12.379-10.084,10.556-18.784
			c-1.826-8.7-10.288-14.164-17.163-12.721C694.194,338.182,688.686,346.721,690.511,355.422z"/>
		<path d="M740.912,318.236c0.068,0.533,0.177,1.07,0.36,1.605c1.152,0.22,1.193-1.262,2.955-2.075
			c1.564-0.725,2.623-0.328,3.675,0.064c1.581,1.212,2.976,3.183,3.831,5.676c1.778,5.161,0.571,10.569-2.689,12.076
			c-3.26,1.51-7.345-1.451-9.12-6.618C738.506,324.837,738.996,320.56,740.912,318.236z"/>
		<path opacity="0.6" d="M748.635,322.011c0.881,2.47-0.122,5.325-2.239,6.375c-2.118,1.051-4.548-0.1-5.429-2.571
			c-0.881-2.47,0.122-5.325,2.239-6.375C745.323,318.389,747.754,319.54,748.635,322.011z"/>
		<path d="M705.534,312.191c0,0-23.282-3.279-30.496,8.854c0,0-4.263-13.444,8.526-18.363S705.534,312.191,705.534,312.191z"/>
		<path d="M724.553,292.189c0,0,4.591-19.347,20.33-24.921s20.986-1.312,20.986-1.312s-6.558-11.477-23.609-8.854
			C725.209,259.726,719.307,283.007,724.553,292.189z"/>
		<path d="M696.317,337.91c0.068,0.533,0.177,1.07,0.36,1.605c0.96,2.794,2.013-0.442,3.775-1.255
			c1.564-0.725,3.395,1.722,2.855-0.756c1.581,1.212,2.976,3.183,3.831,5.676c1.778,5.161,0.571,10.569-2.689,12.076
			c-3.26,1.51-7.345-1.451-9.12-6.618C693.91,344.512,694.4,340.235,696.317,337.91z"/>
		<path opacity="0.6" d="M703.956,342.809c0.833,2.362-0.209,5.124-2.329,6.17c-2.12,1.046-4.513-0.021-5.347-2.383
			c-0.833-2.362,0.209-5.124,2.329-6.17C700.729,339.38,703.123,340.447,703.956,342.809z"/>
		<path d="M785.476,306.038c-47.532,1.385-56.113,12.821-56.113,12.821l0.014-0.003c-5.018,3.921-4.444,7.554-7.228,8.528
			c-4.372,1.53-8.938-0.491-20.549,4.372c-25.577,10.712-27.544,24.265-27.544,24.265c0.656,2.842,3.279,7.214,6.583,8.738
			c3.304,1.524,6.096,10.281,10.249,13.779c4.154,3.498,11.149,2.623,22.954-1.749c11.805-4.372,13.554-10.056,14.21-14.428
			c0.656-4.372-3.061-18.8-3.061-18.8c2.405-1.967,5.851-2.019,5.851-2.019s3.045,4.052,6.336,8.672s6.395,10.398,11.204,9.961
			c4.809-0.437,14.646-2.405,31.261-9.619s13.991-16.177,13.991-16.177l-4.809-21.205c5.028-0.874,22.298-0.437,22.298-0.437
			l0.219-6.121C806.573,305.197,796.814,305.143,785.476,306.038z M709.688,372.854c-10.712,3.498-16.396,3.498-19.675-2.623
			c-3.279-6.121-7.433-14.647-7.433-14.647s12.898-19.456,35.414-19.237c0,0,4.591,15.521,4.809,22.079
			C723.023,364.985,720.4,369.357,709.688,372.854z M768.712,349.245c-19.019,6.558-19.706,6.73-23.079,2.928
			c-3.373-3.802-11.899-14.732-14.085-20.635c-2.186-5.902,11.368-12.242,21.424-14.865c10.056-2.623,22.516-3.716,29.074-2.623
			l5.684,22.516C787.73,336.566,787.73,342.687,768.712,349.245z"/>
		<path d="M722.794,359.914c-0.236,5.742-3.228,9.715-13.106,12.941c-8.513,2.78-13.843,3.337-17.322,0.382
			c0.854,1.268,1.829,2.415,3.294,3.093c1.412,0.653,2.834,1.011,4.266,1.185c3.077-0.036,6.218-1.011,9.003-2.128
			c3.663-1.469,10.138-3.633,12.299-7.171C722.503,366.128,722.983,362.99,722.794,359.914z"/>
		<path d="M747.39,353.879c0.69,0.915,1.451,1.61,2.271,2.129c8.775-0.827,17.282-3.039,25.294-6.948
			c5.056-2.467,11.287-5.775,14.817-10.609c-0.991-3.682-2.105-7.331-3.389-10.924c-0.988-2.763-1.923-5.696-3.077-8.495
			l4.426,17.533c0,0,0,6.121-19.019,12.679C753.267,354.571,749.912,355.684,747.39,353.879z"/>
		<path d="M693.73,403.35c0,0,32.572,12.788,90.722-12.133c58.149-24.921,90.284-61.975,90.284-61.975l1.312,2.623
			c0,0-32.135,37.054-90.284,61.975s-90.722,12.133-90.722,12.133L693.73,403.35z"/>
		<path d="M714.771,464.724c0,0,31.425-42.683,102.909-30.878c0,0-40.989-26.123-104.275,19.784L714.771,464.724z"/>
		<path d="M723.716,476.862c0,0,26.179-29.488,64.326-26.772c15.322,1.116,23.734,0.261,28.797-0.177
			c0.84,2.187,1.502,4.481,1.502,4.481l-5.472,12.571c0,0-40.005-18.035-80.365,13.777c0,0-3.179,8.536-2.244,12.998
			c5.61-3.298,51.611-17.654,71.993-3.686c21.295,14.594,24.683,42.68-4.114,56.26c-28.797,13.58-59.464,8.924-73.676,0.776
			c0,0-1.862-2.445-2.244-3.492c-0.93-2.55-0.935-5.623-0.935-8.924c0,0,23.748,11.252,44.318,7.76
			c20.569-3.492,38.895-10.282,38.521-24.638c-0.374-14.356-21.691-33.368-84.896-7.372c0,0-1.309-1.552-2.244-3.492
			C716.757,501.357,718.948,489.229,723.716,476.862z"/>
		<path d="M721.472,473.37c0,0,22.318-25.205,63.528-26.019c21.406-0.181,31.839,2.562,31.839,2.562l-4.932,13.068
			c0,0-40.135-15.144-81.646,14.269c0,0-3.179,8.536-2.244,12.998c5.61-3.298,51.611-17.654,71.993-3.686
			c21.295,14.594,24.683,42.68-4.114,56.26c-28.797,13.58-59.464,8.924-73.676,0.776c0,0-3.179-7.76-3.179-12.416
			c0,0,23.748,11.252,44.318,7.76s38.895-10.282,38.521-24.638c-0.374-14.356-21.691-33.368-84.896-7.372
			C716.984,506.932,715.115,489.86,721.472,473.37z"/>
		<path d="M774.395,418.106l-13.116,3.607l1.312,14.756c0,0-39.349,28.528-26.233,85.912c4.103,17.951,9.683,31.746,15.985,42.41
			c4.828-0.021,9.646-0.252,14.462-0.557c0.285-0.742,0.789-1.363,1.264-2c-7.9-10.951-14.682-25.224-18.267-43.788
			c-10.493-58.368,27.544-84.273,27.544-84.273L774.395,418.106z"/>
		<path d="M768.493,585.121c0,0-38.967,6.64-53.613-27.244c0,0,14.226,46.077,76.657,41.032L768.493,585.121z"/>
		<path d="M774.395,418.106l-13.116,3.607l1.312,14.756c0,0-39.349,28.528-26.233,85.912c4.171,18.25,9.869,32.197,16.3,42.932
			c0.455,0.014,0.908,0.026,1.355,0.04c3.428,0.104,6.857,0.096,10.283-0.065c0.674-0.032,1.346-0.086,2.019-0.125
			c0.249-0.322,0.49-0.66,0.732-0.995c0.009-0.021,0.007-0.041,0.019-0.062c0.326-0.612,0.759-1.157,1.068-1.778
			c-7.958-10.973-14.727-25.21-18.332-43.88c-10.493-58.368,27.544-84.273,27.544-84.273L774.395,418.106z"/>
		<path d="M768.217,562.459c-7.965-10.978-14.808-25.329-18.415-44.013c-10.493-58.368,27.544-84.273,27.544-84.273l-2.951-16.068
			l-3.716,0.656l2.842,14.209c0,0-38.011,26.131-26.889,84.382c3.96,20.739,11.413,36.196,19.84,47.668
			C767.047,564.163,767.62,563.303,768.217,562.459z"/>
		<path d="M753.402,482.924l-7.153,1.31c0,0-1.262,10.622-0.841,12.95l8.368-1.601L753.402,482.924z"/>
		<path d="M757.879,463.404l-6.02,2.118c0,0,3.325-10.27,7.496-14.33c0,0,6.237-1.601,7.429-1.746
			C767.766,449.519,757.879,463.404,757.879,463.404z"/>
		<path d="M876.047,437.059c0,0,16.413,9.586,33.346,10.291c0,0-0.159-12.812-1.669-21.793
			C906.215,416.576,876.047,437.059,876.047,437.059z"/>
		<path d="M760.321,539.379c0,0-4.535,0.242-5.797,0.146c0,0,2.732,7.906,5.444,11.98c0,0,7.085-0.534,8.674-0.97
			C769.741,550.232,760.321,539.379,760.321,539.379z"/>
		<path d="M1007.375,349.573c-2.295-22.134-24.265-19.511-24.265-19.511c-18.868-4.987-38.394-2.518-54.858,2.114
			c-22.388,10.441-43.9,22.585-63.122,38.11c-12.746,16.292-12.444,31.436-6.134,47.328c3.857,9.713,9.773,15.825,16.721,18.963
			c4.266,1.203,9.122-0.05,13.685-1.547c0.594-0.195,1.177-0.415,1.765-0.624c1.127-0.526,2.204-1.109,3.595-1.84
			c4.731-2.486,9.474-5.032,14.126-7.663c8.745-4.947,17.368-11.325,27.575-12.678c0.789-0.833,1.233-1.334,1.233-1.334
			c2.459,10.657,10.493,19.675,10.493,19.675l74.927-20.658C1026.066,370.067,1007.375,349.573,1007.375,349.573z"/>
		<path d="M920.315,341.539c0,0,6.886,2.295,7.706,8.198c0.82,5.902-1.803,13.28-8.69,20.002c0,0,26.069-15.904,46.235-10.657
			c0,0-9.345,27.216,14.1,45.907c0,0,22.462-6.23,37.054-1.803c0,0,2.623-23.609-15.74-51.482c0,0,2.131-14.264-19.347-14.592
			C981.634,337.112,956.549,327.931,920.315,341.539z"/>
		<path d="M962.397,360.612c0,0-32.265,9.19-29.821,52.379c1.241-0.322,2.503-0.576,3.791-0.75l1.219-1.267
			C937.585,410.974,931.573,377.664,962.397,360.612z"/>
		<path d="M920.206,341.594c0,0,35.939-14.66,61.472-5.253c0,0,21.379-1.523,19.193,15.091c0,0,17.707,19.456,15.958,50.061
			c0,0-1.53-26.67-19.456-49.186c0,0,5.684-12.023-17.489-13.991C979.885,338.315,960.648,329.789,920.206,341.594z"/>
		<polygon points="745.408,497.183 747.582,500.966 749.475,496.456 		"/>
		<path d="M757.579,463.557c0,0-4.353,1.384-5.72,1.966l1.181,2.876L757.579,463.557z"/>
		<path d="M766.255,551.019c0,0-5.61,0.437-6.288,0.485l3.553,3.225L766.255,551.019z"/>
		<path d="M1037.816,431.66l-3.279-11.368c0,0-1.968-18.144-38.256-13.991c-36.289,4.154-51.154,19.019-48.531,30.823
			S1037.816,431.66,1037.816,431.66z"/>
		<path d="M949.718,431.878c0,0,24.703-34.103,72.577-18.363c21.314,6.886,31.151,59.352-15.412,63.287
			C960.32,480.737,944.034,441.06,949.718,431.878z"/>
		<path d="M949.718,431.878c0,0-9.728,13.116-9.4,21.97c0.328,8.854-11.805,15.084,2.623,29.84
			c14.428,14.756,21.314,13.444,25.905,22.954s12.461,10.493,34.43,1.312c21.97-9.181,22.626-16.395,26.889-32.135
			s8.854-48.531-15.084-57.384C991.144,409.58,970.267,407.285,949.718,431.878z"/>
		<path d="M995.079,454.659c0,0,20.567,15.228,25.709,33.62C1020.788,488.279,1025.139,461.976,995.079,454.659z"/>
		<path d="M875.31,499.182c0,0-19.866,80.802-85.448,84.737c0,0,11.641,8.198,23.063,11.832c0,0,16.559-3.607,22.134-7.542
			c5.574-3.935,46.563-60.007,45.989-81.486S875.31,499.182,875.31,499.182z"/>
		<path d="M714.28,464.724c0,0,14.22-21.205,47.22-29.075v0.71l-1.504,1.913c0,0-23.609,5.124-46.235,29.471L714.28,464.724z"/>
		<path d="M777.019,432.78c0,0,24.101-3.361,40.661,1.066c0,0-29.922-2.131-41.644,1.312l1.312-0.984L777.019,432.78z"/>
		<path d="M770.461,586.651c0,0-23.172,1.64-35.633-6.558s-16.505-14.975-16.505-14.975s15.79,15.429,27.872,17.926
			c11.504,2.377,12.788,2.049,22.544,2.049L770.461,586.651z"/>
		<path d="M550.98,265.082c0,0-6.121,3.17-5.465,7.105c0.656,3.935,2.623,5.247,6.394,5.574c3.771,0.328,11.641-4.099,14.1-6.558
			c2.459-2.459,4.536-5.957-1.694-7.433C558.084,262.294,554.423,262.786,550.98,265.082z"/>
		<path d="M524.162,298.632c0,0,5.856,1.285,10.731,7.046c7.178,21.596,21.204,1.582,26.197-5.456
			c-5.411-8.854-10.47-12.008-12.815-13.353c-3.242-1.86-5.303-5.113-8.844-6.578c-2.858-1.182-5.855-1.509-8.883-1.842
			c-2.449,0.222-5.072,0.823-7.646,2.109C511.178,286.418,513.409,302.091,524.162,298.632z"/>
		<path d="M519.658,286.151c0,0-4.241,4.583-2.472,7.735c1.769,3.151,3.849,3.664,7.163,2.784c3.314-0.88,8.659-7.073,9.999-9.925
			c1.339-2.852,2.034-6.471-3.729-5.813C524.855,281.591,521.886,283.136,519.658,286.151z"/>
		<path d="M561.462,288.286c0,0,3.071,8.002,3.399,11.609c0,0,17.051-4.919,24.101-4.755c0,0-4.591-12.297-10.657-15.084
			C578.305,280.056,572.819,286.022,561.462,288.286z"/>
		<path d="M551.308,293.828c0,0,5.192,4.427,6.504,8.362c0,0-8.198,3.443-17.871,8.362c0,0-1.64-4.755-3.115-6.066
			C536.825,304.485,545.624,300.386,551.308,293.828z"/>
		<path d="M592.734,299.84c-27.708-0.055-51.373,14.428-51.373,14.428s-1.749,8.58,6.777,15.794
			c5.227,4.423,4.044,8.658,2.346,11.275c0.002,0.014,0.01,0.023,0.011,0.038c0.593,7.628,10.813,5.631,16.49,3.093
			c6.031-27.758,27.388-28.67,27.388-28.67C598.472,304.157,592.734,299.84,592.734,299.84z"/>
		<path d="M541.361,314.268c0,0,24.593-15.302,51.372-14.428C592.734,299.84,567.922,303.556,541.361,314.268z"/>
		<path d="M621.885,365.661c0,0-22.891-3.396-41.105,14.578c0,0,35.182,55.574,62.371,70.002c0,0-27.026-17.051-55.445-69.298
			C587.706,380.943,595.51,368.523,621.885,365.661z"/>
		<path d="M616.671,584.793c0,0,2.295,18.254,24.156,20.877c21.861,2.623,34.977,3.498,40.442-23.828
			c3.716-15.084-1.804-21.11-1.804-21.11s9.127-13.976,28.801-13.211c0,0-21.642-3.826-32.244,12.023c0,0,4.809,8.088,1.967,20.549
			c-2.925,12.823-3.716,27.107-36.726,22.298C619.294,598.128,616.671,584.793,616.671,584.793z"/>
		<path d="M991.635,425.812c0-10.001-9.509-10.001-20.822-6.722c-8.905,2.581-15.86,8.601-18.426,11.053
			c-3.126,2.386-5.184,5.343-5.184,5.343c-8.854,12.133-6.886,20.658-6.886,20.658c1.312-3.279,7.542-13.772,17.379-16.723
			c-7.585,4.876-13.599,17.128-15.463,21.245c-1.181,2.171-2.063,4.195-2.244,5.644c-0.656,5.247,9.181,9.837,26.233,0.656
			c8.124-4.374,13.461-7.858,16.148-11.545c0.192-0.195,0.376-0.378,0.575-0.587c2.142-2.255,4.518-6.682,6.112-11.534
			C991.083,438.871,991.635,432.736,991.635,425.812z"/>
		<path d="M971.961,440.24c0,0-4.866,0.918-7.415-0.292c-0.19-0.126-0.393-0.248-0.619-0.364
			c-6.394-3.279-13.772,4.263-13.772,4.263s-10.493,18.363-4.427,9.837c6.066-8.526,12.133-13.28,16.395-12.133
			s0.055,8.908,0.055,8.908s1.503-1.404,2.711-3.265C965.479,446.556,969.247,442.502,971.961,440.24z"/>
		<path d="M536.497,314.159c0,0-15.576,1.476-20.494,8.198s4.263,7.542,12.952,9.509c8.69,1.967,18.035,5.738,19.347,2.787
			c1.312-2.951-14.1-10.985-22.298-11.149c0,0,7.87-0.492,10.165,0.164S539.12,318.749,536.497,314.159z"/>
		<path d="M513.926,337.768c0,0-1.64,1.421-2.669,3.512c-1.02,1.873-1.114,2.741,0.155,4.85c1.252,2.08,3.853,3.713,6.066,4.755
			c5.574,2.623,8.059,3.298,12.903,1.855c1.979-1.374,3.589-3.885,4.203-5.68C534.584,347.059,521.249,344.873,513.926,337.768z"/>
		<path d="M536.497,314.159c0,0-11.641,0.765-18.199,5.793c-6.558,5.028-4.044,8.526,0.547,9.728
			c4.591,1.202,26.998,7.761,29.184,5.574c0.984-0.874,0.109-1.858,0.109-1.858s-1.093,1.53-7.979-0.109s-15.302-4.263-19.019-5.465
			c-3.716-1.202-6.34-2.623-1.53-6.23C524.419,317.984,529.775,315.689,536.497,314.159z"/>
		<path d="M598.99,314.803c-0.025,0.132-0.051,0.295-0.077,0.442c4.989-0.643,10.042-0.079,15.105,0.67
			c0.339-2.085,0.604-4.146,0.761-6.03c1.082-5.529,1.57-11.731-0.206-14.417c-2.71-4.099-6.695-5.574-10.839-4.591
			s-4.941,2.459-3.985,4.427c0,0,2.391,3.115,0.797,9.345C599.406,309.104,599.083,312.96,598.99,314.803z"/>
		<path d="M600.193,306.043c0,0,1.23-5.41,0.492-8.034c-0.738-2.623-3.689-5.41,1.885-6.886c5.574-1.476,12.87,0.082,13.362,9.591
			c0,7.132-1.64,14.51-1.64,14.51s1.066-13.936-0.656-17.953c-1.721-4.017-5.165-5.165-8.116-4.837s-4.755,0.574-3.771,3.279
			C602.735,298.419,600.193,306.043,600.193,306.043z"/>
		<path d="M546.006,274.318c0,0-3.607-5.902,5.902-10.001c9.509-4.099,15.33,0.164,15.822,0.984c0,0-6.558-3.361-15.248,0.738
			C543.793,270.137,546.006,274.318,546.006,274.318z"/>
		<path d="M518.298,295.632c0,0-5.083-4.673,2.623-11.231c7.706-6.558,13.444-3.689,14.1-2.377c0,0-4.755-1.558-12.461,4.099
			C514.855,291.779,518.298,295.632,518.298,295.632z"/>
		<path d="M983.438,417.286c4.591,0.492,8.198,2.623,7.378,14.264c-0.541,7.675-3.532,14.519-4.655,16.853
			c-3.784,5.172-10.651,12.125-22.233,16.758c-13.456,5.382-26.943,8.198-18.855-6.23c8.089-14.428,9.018-14.155,13.608-17.215
			c0,0-9.4,3.498-16.177,17.051c-6.777,13.554,0.656,19.456,22.954,9.181c7.586-3.496,12.866-7.674,16.536-11.667
			c3.955-3.585,8.411-8.69,10.298-24.075C994.423,414.827,983.438,417.286,983.438,417.286z"/>
		<path d="M592.078,688.959c0,0-26.233-13.116-14.428-47.656s41.972-52.028,80.447-38.037l40.661,8.744
			c0,0,19.237,17.489,18.363,49.842L592.078,688.959z"/>
		<path d="M594.264,689.834c0,0-17.051-9.619-6.558-31.479c10.493-21.861,20.549-35.414,64.27-26.67
			c43.721,8.744,66.019,12.679,65.145,30.168c-0.874,17.489-17.051,34.54-71.266,17.051
			C645.855,678.903,618.748,700.327,594.264,689.834z"/>
		<path d="M834.582,260.279c-7.943,1.427-16.695-3.995-20.146-11.176c-3.156-6.568-3.618-16.628,1.348-22.521l-0.271-0.485
			c-0.675,0.351-1.343,0.715-2.016,1.072c-1.324,0.918-2.732,1.726-4.185,2.44c-1.206,2.127-4.963,10.414,1.645,22.083
			c7.706,13.608,19.292,11.75,19.292,11.75l4.481-2.897L834.582,260.279z"/>
		<path d="M577.322,672.892c0,0-12.461-23.282,7.214-47.875c19.675-24.593,30.696-31.874,62.631-25.249
			c30.823,6.394,35.086,8.854,35.086,8.854s-47.531-7.471-61.647-4.263c-14.428,3.279-26.889,15.084-36.398,30.823
			C574.698,650.922,574.371,663.054,577.322,672.892z"/>
		<path d="M817.789,227.591l-2.213,2.371c0,0-4.018,8.341,0.245,17.194c4.591,8.416,11.368,12.679,16.286,11.477
			c1.967-0.656,2.405-1.202,2.405-1.202l1.312-1.858c0,0,1.749,1.53-0.328,4.263c-2.077,2.733-9.947,1.749-13.991-1.202
			c-4.044-2.951-8.198-6.667-10.165-15.63c-2.069-9.425,1.421-15.521,4.154-16.942c2.295-1.421,3.826-0.547,3.826-0.547
			L817.789,227.591z"/>
		<path d="M661.963,319.036c0,0-5.452,3.894-1.353,13.895c4.099,10.001,9.018,8.444,9.018,8.444l-3.607,0.902
			c0,0-5.165,0.082-8.362-10.329c-2.623-9.919,0.779-12.051,0.779-12.051L661.963,319.036z"/>
		<path d="M662.688,331.319c-3.187-8.06,0.39-10.624,1.476-11.193c0.3-0.14,0.431-0.206,0.629-0.221
			c0.165-0.013,0.163-0.019,0.326-0.036l0.169-0.063c-0.191-0.276-0.296-0.482-0.517-0.895c-0.801-0.294-1.692-0.254-2.776,0.03
			c-2.96,2.016-4.56,5.53-1.821,13.035c4.208,11.532,10.384,9.4,10.384,9.4l1.565-0.573c0.232-0.19,0.42-0.408,0.586-0.644
			C670.374,340.087,665.695,338.925,662.688,331.319z"/>
		<g>
			<circle opacity="0.1" cx="710.125" cy="383.348" r="6.401"/>
			<circle cx="710.125" cy="383.348" r="1.201"/>
		</g>
		<path d="M855.881,376.461c0,0-13.936,16.232-1.148,44.924c9.837,18.363,18.691,20.658,18.691,20.658l-0.984,2.131
			c0,0-10.985-4.263-19.511-21.806c-7.575-15.587-9.018-32.135,1.967-47.711L855.881,376.461z"/>
		<path d="M674.055,356.022c0,0,1.476-11.367,16.723-19.401c15.248-8.034,22.298-9.673,26.889-9.181l6.394-2.787
			c0,0,4.919-15.412,47.711-18.527c20.658-1.967,36.835-0.656,39.568,0.492c0,0-46.29-1.148-68.916,8.854
			c-15.576,6.886-17.379,13.936-17.379,13.936l-4.591,2.131c0,0-8.362-4.591-28.364,7.706
			c-20.002,12.297-16.232,20.713-16.232,20.713s-0.922-1.451-1.257-2.241C674.267,356.927,674.055,356.022,674.055,356.022z"/>
		<path d="M944.324,615.857c0,0,8.892-48.88-17.128-82.108c0,0,17.877,12.898,21.511,44.377S944.324,615.857,944.324,615.857z"/>
		<path d="M926.545,609.824c0,0,0-23.937-47.219-55.526l-2.242,2.777C877.084,557.075,918.238,583.372,926.545,609.824z"/>
		<path d="M769.477,587.799c0,0,0.82-1.394,3.525-1.885c2.705-0.492,17.051-3.271,22.462-1.021
			c5.411,2.25,18.276,10.674,18.276,10.674s-10.051,2.892-23.878,3.547S769.477,587.799,769.477,587.799z"/>
		<path d="M759.5,585.059c0,0,13.9,1.192,38.628-4.346l1.195,1.998c0,0-18.824,5.047-39.824,3.92V585.059z"/>
		<polygon points="644.895,321.045 662.557,354.339 666.799,351.246 648.369,316.563 		"/>
		<path d="M663.694,409.966c0,0-35.765,12.534-15.653,65.534h3.061c0,0-20.634-45.773,16.339-64.613L663.694,409.966z"/>
		<path d="M652.145,402.581c-0.041-0.467-0.046-0.936-0.011-1.407c-0.096-0.513-0.147-1.039-0.178-1.573
			c-9.724-0.754-35.57,1.624-46.145,45.547l2.522,1.734C608.333,446.882,616.324,402.63,652.145,402.581z"/>
		<path d="M638.678,385.449c0.053-0.465,0.142-0.926,0.27-1.38c0.008-0.522,0.064-1.048,0.14-1.577
			c-9.378-2.682-35.178-5.516-54.315,35.409l2.125,2.203C586.897,420.103,603.569,378.34,638.678,385.449z"/>
		<path d="M969.891,397.448c0,0,23.609-14.428,47.609-6.476v-2.869c0,0-19.46-9.611-50.054,6.64L969.891,397.448z"/>
		<path d="M963.927,383.43c0,0,25.422-19.417,49.027-10.077l1.471-2.465c0,0-19.99-12.564-51.415,9.734L963.927,383.43z"/>
		<path d="M962.943,369.985c25.077-21.613,46.557-9.95,43.612-11.34l-0.164-2.514c0,0-16.778-10.705-44.323,10.657L962.943,369.985z
			"/>
		<path d="M965.567,359.082c0,0,7.761-20.904,19.347-23.855l-3.935-1.143c0,0-11.313,3.357-18.582,25.403L965.567,359.082z"/>
		<path d="M957.287,332.5c0,0-9.867,6.979-4.121,26.08l-2.335,1.388c0,0-6.578-18.468,2.849-27.468H957.287z"/>
		<path d="M938.924,363.101c0,0-8.505-8.601-5.65-24.601h-2.732c0,0-3.104,13.597,5.836,25.878L938.924,363.101z"/>
		<path d="M615.948,588.4c0,0,23.785-17.707,68.163,4.372l-0.874-3.498c0,0-31.042-21.423-68.553-6.57L615.948,588.4z"/>
		<path d="M620.135,560.755c0,0,42.019-14.764,63.442,8.517l2.447-3.443c0,0-17.854-22.626-64.024-9.591L620.135,560.755z"/>
		<path d="M635.362,541.728c0,0,38.147-10.602,49.678,15.412l2.541-1.066c0,0-7.34-27.074-49.728-17.103
			C637.854,538.971,636.632,539.965,635.362,541.728z"/>
		<path d="M664.79,527.669c0,0,29.103-2.774,34.906,22.475l2.669-0.874c0,0-3.856-23.505-30.536-22.464
			C671.829,526.806,668.94,526.926,664.79,527.669z"/>
	</g>
</g>
<g>
	<path fill="#425356" d="M923.922,514.949c0,0,17.926-21.861,42.847,5.684c24.921,27.544,66.456-3.498,68.642,47.219
		s-63.833,34.54-69.954,26.233C959.336,585.777,908.62,536.809,923.922,514.949z"/>
	<path fill="#627377" d="M924.578,517.463c0,0,25.905,1.967,37.054,19.675c11.149,17.707,59.024,19.675,61.975,12.789
		c2.951-6.886-7.542-11.149-17.379-11.805c-9.837-0.656-28.2-1.64-39.677-12.789C955.074,514.184,943.597,501.723,924.578,517.463z"
		/>
	<path fill="#DDDDDD" d="M735.046,529.377c0,0-52.028-7.87-73.889,15.74c0,0-25.358,17.488-17.926,62.521
		c0,0,41.098,16.614,82.633,13.554c0,0,1.749-20.549-4.372-33.665c0,0,30.168,1.749,44.158-1.749
		C779.642,582.279,735.046,529.377,735.046,529.377z"/>
	<path fill="#F4F4F4" d="M738.325,548.942c0,0-22.79-1.982-31.315,13.102c0,0,12.625,52.48-33.283,45.594
		c-42.956-7.214-27.544-41.317-27.544-41.317s6.23-20.986,16.723-23.282c0,0,13.772-21.751,72.14-13.663L738.325,548.942z"/>
	<path fill="#DDDDDD" d="M852.219,592.772c0,0,66.894,59.898,94.875,46.782s20.986-14.865,26.67-27.544
		c5.684-12.679,6.121-82.633-49.405-91.815C868.833,511.014,852.219,592.772,852.219,592.772z"/>
	<path fill="#C9C9C9" d="M906.871,555.609c0,0,44.159,28.419,47.219,55.526c0,0,13.116-41.317-34.453-72.82L906.871,555.609z"/>
	<path fill="#627377" d="M643.669,336.347c1.967-6.777,9.181-27.107,1.53-40.005c-7.651-12.898-27.326-6.558-19.456,2.842
		c0,0,0.437,2.842,0,4.809c0,0-0.604-1.675-1.693-4.253c-0.905-1.69-2.041-3.213-2.971-4.894c-1.133-2.047-2.061-4.267-3.425-6.174
		c-2.874-4.017-6.533-7.094-9.686-10.811c-2.669-3.146-3.59-7.296-6.718-10.143c-2.524-2.298-5.514-3.76-8.532-5.241
		c-2.625-0.687-5.575-1.046-8.728-0.675c-14.37,1.691-17.926,18.8-5.465,19.237c0,0,9.947,8.034,10.766,20.986
		c-7.163-5.139-23.962-20.62-38.247-16.606c1.323,1.992,2.007,5.061,2.468,7.111c0.666,2.956,2.178,5.637,3.188,8.485
		c0.076,0.214,0.158,0.439,0.243,0.671c0.149-0.111,0.342-0.17,0.568-0.134c5.396,0.857,6.812,5.982,7.085,10.748
		c0.023,0.399-0.344,0.707-0.718,0.718c-0.102,0.003-0.2-0.009-0.3-0.01c-0.047,0.055-0.079,0.114-0.137,0.167
		c0,0-17.707,1.749-23.828,11.149c-6.121,9.4-0.437,12.461-0.437,12.461s-4.809,3.88-4.809,9.345c0,5.465,4.222,7.314,10.493,10.985
		c6.722,3.935,17.379,5.902,20.166,1.312c0.328,2.459,1.038,3.716,1.038,3.716s5.247,17.27,22.298,17.051
		c17.051-0.219,57.493-27.326,57.493-27.326S641.701,343.124,643.669,336.347z"/>
	<path fill="#ABB5B7" d="M588.799,395.316l-4.263-10.329c0,0,16.232-35.742,65.746-33.447l5.083,7.05L588.799,395.316z"/>
	<path fill="#8E989B" d="M588.799,393.841c0,0,12.461-41.098,66.019-35.851c0,0,5.028,5.028-2.186,8.088
		S587.924,408.05,588.799,393.841z"/>
	<path fill="#DDDDDD" d="M592.952,392.966c0,0,12.436-35.523,58.574-31.917l34.552,46.782c0,0,35.196,13.226,45.361,13.226
		c0,0,21.319,21.774,7.872,61.549c0,0-46.784,6-78.154-8.756C661.157,473.851,611.206,433.408,592.952,392.966z"/>
	<g>
		<path fill="#F4F4F4" d="M742.717,455.743c0.029,0.057,0.12-0.044,0.179-0.069c0-0.001-0.001-0.002-0.001-0.003
			c0.017-0.005,0.033-0.01,0.05-0.015c0.463-0.194,0.937-0.36,1.406-0.537c-0.311-2.099-0.755-3.889-1.258-5.165
			c-1.005-2.549-1.782-5.411-2.613-8.441c-1.564-5.702-3.911-14.319-7.14-14.449c-11.604-0.467-43.278-11.797-46.855-13.088
			c-0.875-0.315-1.607-0.802-2.279-1.429c-11.806-11.027-29.038-36.839-34.777-45.574c-0.851-0.028-2.263-0.042-2.263-0.042h-0.266
			c-19.071,0.002-31.251,7.4-38.575,14.62c4.168,6.524,33.454,51.375,62.371,70.002c0,0,42.017,6.446,71.401,3.279
			C742.135,454.802,742.26,454.832,742.717,455.743z"/>
	</g>
	<path fill="#DDDDDD" d="M735.683,482.704c-3.244-8.316-15.795-46.171,17.014-62.889l-3.746-0.837c0,0-35.006,12.636-16.262,63.726
		H735.683z"/>
	<path fill="#028CB9" d="M913.866,351.431c0,0,20.549,29.73,22.298,106.68c1.162,51.143-23.172,132.475-113.675,141.657
		s-99.247-80.01-80.01-132.475c0,0-1.749-20.986-10.493-43.721C723.614,401.805,901.187,330.882,913.866,351.431z"/>
	<path fill="#DDDDDD" d="M718.783,417.901c0,0-35.765,12.599-15.653,65.599h3.06c0,0-20.634-45.806,16.339-64.646L718.783,417.901z"
		/>
	<path fill="#02A5DB" d="M902.936,446.306l-14.264-54.761l-6.189-16.068l-2.549,1.833c0,0,12.227,15.869,19.067,63.421
		c6.777,47.11,2.424,74.507-21.423,105.915c-19.516,25.702-41.678,33.461-53.672,35.8c-2.381,0.71-4.817,1.547-7.282,2.132
		l2.267,1.626c28.264-2.906,50.434-21.195,61.419-37.755c10.985-16.559,22.298-34.922,24.265-59.188
		S902.936,446.306,902.936,446.306z"/>
	<path fill="#027397" d="M887.196,372.854c0,0-19.839,21.396-7.706,45.006c12.133,23.609,16.559,24.839,28.364,26.479
		C919.659,445.978,887.196,372.854,887.196,372.854z"/>
	<path fill="#626D70" d="M712.748,413.133l6.995,10.876c0,0,45.033,15.302,106.789-14.756
		c54.061-26.313,91.159-62.631,91.159-62.631l-2.077-13.772L712.748,413.133z"/>
	<path fill="#027397" d="M882.483,375.478c0,0,25.044,56.4,22.421,103.619c-2.623,47.219-17.817,94.505-56.455,114.474l-2.896,1.934
		c0,0,97.826-16.505,91.05-155.32c-6.449-73.561-22.189-90.448-22.189-90.448S897.58,364.383,882.483,375.478z"/>
	<path fill="#8E989B" d="M715.7,404.99c0,0-9.837,9.837,4.591,12.133c14.428,2.295,58.696,8.526,107.226-17.379
		c48.531-25.905,88.208-58.04,88.208-65.582s-10.165-7.87-10.165-7.87L715.7,404.99z"/>
	<g>
		<path fill="#425356" d="M903.592,333.177c-7.87-20.33-22.298-56.073-62.959-122.31s-69.517-79.354-142.969-36.07
			s-55.745,80.666-28.856,129.852c26.889,49.186,53.777,102.636,53.777,102.636s46.891,12.788,104.931-19.347
			C885.557,355.803,903.592,333.177,903.592,333.177z"/>
		<path fill="#627377" d="M766.33,149.695c28.961,0,49.424,20.643,74.303,61.172c40.661,66.238,55.089,101.98,62.959,122.31
			c0,0-18.035,22.626-76.075,54.761c-32.318,17.894-61.179,21.858-80.413,21.858c-15.308,0-24.518-2.512-24.518-2.512
			s-26.889-53.449-53.777-102.636c-26.889-49.186-44.596-86.568,28.856-129.852C726.173,157.998,747.96,149.695,766.33,149.695
			 M766.33,144.449c-19.018,0-41.017,7.966-71.329,25.828c-35.626,20.994-52.984,42.247-54.627,66.884
			c-1.454,21.808,9.439,43.679,23.831,70.005c26.536,48.54,53.425,101.943,53.694,102.477l1.051,2.089l2.256,0.615
			c0.404,0.11,10.07,2.697,25.899,2.697c19.292,0,49.344-3.906,82.954-22.515c58.282-32.269,76.873-55.124,77.636-56.081
			l1.877-2.355l-1.087-2.809c-6.773-17.497-20.866-53.905-63.38-123.161c-13.871-22.597-25.179-37.096-36.664-47.011
			C795.453,149.899,781.679,144.449,766.33,144.449L766.33,144.449z"/>
	</g>
	<path fill="#425356" d="M700.506,317.984c0,0-16.396,12.543-38.256-1.448c0,0,19.456,38.393,49.186,20.904
		C711.437,337.44,705.316,322.794,700.506,317.984z"/>
	<path opacity="0.3" fill="#718789" d="M783.085,152.335c0,0,2.623,19.292,2.131,31.206l-73.233,173.573l-10.165,9.509
		l-25.905-48.749c0,0-22.844-40.551-26.67-54.87c-3.826-14.319-11.75-39.513,19.729-68.041
		c25.413-22.462,55.909-35.086,67.057-39.185C747.179,151.68,768.985,146.269,783.085,152.335z"/>
	<path fill="#627377" d="M690.595,337.731c6.979,0.103,12.681-2.817,17.959-6.632c-2.213-4.576-5.338-10.405-8.047-13.114
		c0,0-16.396,12.543-38.256-1.448c0,0,4.158,7.877,11.313,15.432C684.211,342.006,683.95,337.633,690.595,337.731z"/>
	<path fill="#707070" d="M691.789,321.409c-5.981,1.662-4.187,8.667-1.867,12.718c2.201,3.842,5.729,6.691,9.832,7.519
		c3.656-0.465,7.555-1.778,11.683-4.206c0,0-6.121-14.647-10.93-19.456c0,0-3.085,2.214-8.498,3.313
		C691.944,321.341,691.877,321.384,691.789,321.409z"/>
	<path fill="#929DA0" d="M691.789,321.409c-5.981,1.662-4.187,8.667-1.867,12.718c0.747,1.304,1.651,2.49,2.675,3.526
		c6.078-0.422,11.194-3.113,15.956-6.555c-2.213-4.576-5.338-10.405-8.047-13.114c0,0-3.085,2.214-8.498,3.313
		C691.944,321.341,691.877,321.384,691.789,321.409z"/>
	<g>
		<path fill="#EAF6FD" d="M860.109,251.948c0.61,1.063,1.221,2.143,1.832,3.241C861.329,254.088,860.719,253.013,860.109,251.948z"
			/>
		<path fill="#EAF6FD" d="M863.098,257.303c0.452,0.828,0.903,1.652,1.355,2.501C864.001,258.954,863.549,258.133,863.098,257.303z"
			/>
		<path fill="#EAF6FD" d="M857.409,247.342c0.716,1.193,1.435,2.418,2.153,3.658C858.844,249.757,858.126,248.535,857.409,247.342z"
			/>
		<path fill="#F5FCFF" d="M775.707,405.318c-14.756-8.526,1.312-18.035-7.542-28.856c0,0,57.056-5.902,66.894-31.151
			c0,0,1.863,0.446,6.633,3.9c0.362-0.625,2.973-0.852,3.314-1.495c11.295-21.28,5.304-46.195,1.53-68.642
			c-0.094-0.561,3.623-1.829,0-1.093c0.858-7.703-0.021-14.547,3.891-21.333c1.948-3.38,4.339-6.454,6.981-9.307
			c-50.003-72.105-61.152-71.667-61.152-71.667c2.623,7.87,2.186,20.986,2.186,20.986c-14.865-21.423-31.916-19.237-31.916-19.237
			c2.186,4.809,2.186,11.805,2.186,11.805c-15.303-13.991-46.345-10.056-46.345-10.056c11.368,17.051,13.991,43.284,13.991,43.284
			c-20.112-17.926-52.466-11.368-52.466-11.368l1.749,6.558c-7.433-1.312-11.586,0.437-11.586,0.437
			c15.74,12.679,19.019,41.535,19.019,41.535c-20.112-5.247-38.475,2.623-38.475,2.623s15.74,19.237,32.354,48.968
			c26.56,43.461,44.216,89.852,45.837,97.307C741.802,409.281,759.658,407.955,775.707,405.318z"/>
		<path fill="#D6EFFC" d="M861.94,255.19c0.386,0.695,0.771,1.404,1.157,2.114C862.712,256.596,862.326,255.883,861.94,255.19z"/>
		<polygon fill="#D6EFFC" points="857.408,247.339 857.408,247.339 857.409,247.341 		"/>
		<path fill="#D6EFFC" d="M864.452,259.804c0.877,1.652,1.755,3.33,2.632,5.059C866.208,263.133,865.33,261.453,864.452,259.804z"/>
		<path fill="#D6EFFC" d="M859.563,251c0.182,0.315,0.364,0.63,0.546,0.948C859.926,251.631,859.744,251.314,859.563,251z"/>
		<path fill="#E1EEF4" d="M843.568,278.496c0.381-0.242,0.941-0.176,1.036,0.385c3.773,22.447,9.449,47.157-1.846,68.437
			c-0.341,0.643-0.705,1.266-1.067,1.891c4.814,3.486,13.151,15.337,6.593,24.956c18.259-11.628,40.532-27.148,49.663-35.642
			c1.024-1.265,1.49-1.958,1.49-1.958s-1.312-10.493-32.354-71.703c-0.877-1.729-1.755-3.407-2.632-5.059
			c-0.452-0.849-0.903-1.672-1.355-2.501c-0.386-0.709-0.772-1.419-1.157-2.114c-0.611-1.098-1.222-2.179-1.832-3.241
			c-0.182-0.318-0.364-0.634-0.546-0.948c-0.719-1.24-1.437-2.465-2.153-3.658c0,0-0.001-0.002-0.002-0.003
			c-2.643,2.853-5.033,5.927-6.981,9.307C846.515,263.432,844.427,270.793,843.568,278.496z"/>
		<path fill="#4E4D50" d="M812.476,394.192c0.023-0.011,0.046-0.022,0.069-0.033"/>
	</g>
	<path fill="#E1EEF4" d="M827.212,215.326c5.44,8.198,8.1,18.142,9.745,27.943c4.635-1.988,8.958-4.568,13.158-7.361
		c-18.348-26.972-42.672-54.164-49.925-58.265C807.773,183.591,822.028,207.514,827.212,215.326z"/>
	<path fill="#425356" d="M829.047,241.253c0,0-7.433,24.921,22.735,45.033l-3.06-15.302c0,0,44.159-24.047,12.242-85.694
		C860.964,185.29,859.215,228.137,829.047,241.253z"/>
	<path fill="#627377" d="M845.257,280.41c-1.666-3.173-3.788-7.158-3.399-10.881c0.408-3.905,3.358-5.902,6.138-8.343
		c4.893-4.298,8.896-8.994,12.676-14.283c12.535-17.54,9.407-42.623,0.26-61.062c-0.324,4.991-3.71,43.162-31.885,55.412
		c0,0-6.473,21.736,17.245,40.992C845.942,281.636,845.584,281.032,845.257,280.41z"/>
	<path fill="#707070" d="M860.974,260.168c-5.401,0.613-10.724-0.562-14.302-5.544c-5.06-7.046-7.298-15.737-3.568-23.316
		c-3.817,4.032-8.444,7.504-14.057,9.945c0,0-7.433,24.921,22.735,45.033l-3.06-15.302
		C848.722,270.984,854.907,267.615,860.974,260.168z"/>
	<path fill="#929DA0" d="M847.996,261.186c1.009-0.886,1.972-1.794,2.911-2.716c-1.569-0.896-3.008-2.139-4.234-3.846
		c-5.068-7.057-7.306-15.765-3.552-23.351c-3.823,4.044-8.447,7.534-14.073,9.98c0,0-6.473,21.736,17.245,40.992
		c-0.351-0.609-0.709-1.213-1.036-1.836c-1.666-3.173-3.788-7.158-3.399-10.881C842.266,265.624,845.216,263.627,847.996,261.186z"
		/>
	<path fill="#E1EEF4" d="M719.036,359.809c1.854,8.836,9.015,14.813,15.997,13.348c6.982-1.464,12.896-10.388,11.041-19.225
		c-1.852-8.837-10.769-14.239-17.75-12.775C721.34,342.62,717.182,350.972,719.036,359.809z"/>
	<path fill="#E1EEF4" d="M768.057,336.229c1.831,8.729,9.875,14.551,16.772,13.104c6.898-1.446,12.446-10.263,10.613-18.993
		c-1.83-8.73-10.344-14.066-17.241-12.621C771.302,319.164,766.226,327.498,768.057,336.229z"/>
	<path fill="#FFFFFF" d="M766.745,333.418c1.802,8.595,10.165,13.798,16.957,12.373c6.792-1.425,11.935-9.962,10.134-18.557
		c-1.804-8.595-9.869-13.993-16.661-12.568C770.384,316.091,764.943,324.822,766.745,333.418z"/>
	<path fill="#FFFFFF" d="M718.055,356.734c1.825,8.7,10.289,14.265,17.164,12.823c6.875-1.443,12.379-10.084,10.556-18.784
		c-1.826-8.7-10.288-14.164-17.163-12.721C721.738,339.494,716.231,348.033,718.055,356.734z"/>
	<path fill="#425356" d="M768.457,319.547c0.068,0.533,0.177,1.07,0.36,1.605c1.152,0.22,1.193-1.262,2.955-2.075
		c1.564-0.725,2.623-0.328,3.675,0.064c1.581,1.212,2.976,3.183,3.831,5.676c1.778,5.161,0.571,10.569-2.689,12.076
		c-3.26,1.51-7.345-1.451-9.12-6.618C766.05,326.149,766.54,321.872,768.457,319.547z"/>
	<path opacity="0.6" fill="#FFFFFF" d="M776.179,323.323c0.881,2.47-0.122,5.325-2.239,6.375c-2.118,1.051-4.548-0.101-5.429-2.571
		c-0.881-2.47,0.122-5.325,2.239-6.375S775.298,320.852,776.179,323.323z"/>
	<path fill="#BDDBE5" d="M733.079,313.503c0,0-23.282-3.279-30.496,8.854c0,0-4.263-13.444,8.526-18.363
		C723.897,299.075,733.079,313.503,733.079,313.503z"/>
	<path fill="#BDDBE5" d="M752.098,293.5c0,0,4.591-19.347,20.33-24.921c15.74-5.574,20.986-1.312,20.986-1.312
		s-6.558-11.477-23.609-8.854C752.753,261.037,746.851,284.319,752.098,293.5z"/>
	<path fill="#425356" d="M723.861,339.222c0.068,0.533,0.177,1.07,0.36,1.605c0.96,2.794,2.013-0.442,3.775-1.255
		c1.564-0.725,3.395,1.722,2.855-0.756c1.581,1.212,2.976,3.183,3.831,5.676c1.778,5.161,0.571,10.569-2.689,12.076
		c-3.26,1.51-7.345-1.451-9.12-6.618C721.455,345.823,721.944,341.546,723.861,339.222z"/>
	<path opacity="0.6" fill="#FFFFFF" d="M731.501,344.12c0.833,2.362-0.209,5.124-2.329,6.17c-2.12,1.046-4.514-0.021-5.347-2.383
		c-0.833-2.362,0.209-5.124,2.329-6.17C728.274,340.692,730.668,341.759,731.501,344.12z"/>
	<path fill="#707070" d="M813.02,307.35c-47.532,1.385-56.113,12.821-56.113,12.821l0.014-0.002
		c-5.018,3.921-4.444,7.554-7.228,8.528c-4.372,1.53-8.938-0.491-20.549,4.372c-25.577,10.712-27.544,24.265-27.544,24.265
		c0.656,2.842,3.279,7.214,6.583,8.738c3.304,1.524,6.096,10.281,10.249,13.779c4.154,3.498,11.149,2.623,22.954-1.749
		c11.805-4.372,13.554-10.056,14.21-14.428c0.656-4.372-3.061-18.8-3.061-18.8c2.405-1.967,5.85-2.019,5.85-2.019
		s3.045,4.052,6.336,8.672c3.291,4.62,6.395,10.398,11.204,9.961c4.809-0.437,14.646-2.405,31.261-9.619
		c16.614-7.214,13.991-16.177,13.991-16.177l-4.809-21.205c5.028-0.874,22.298-0.437,22.298-0.437l0.219-6.121
		C834.117,306.508,824.358,306.455,813.02,307.35z M737.232,374.166c-10.712,3.498-16.395,3.498-19.675-2.623
		c-3.279-6.121-7.433-14.647-7.433-14.647s12.898-19.456,35.414-19.237c0,0,4.591,15.521,4.809,22.079
		C750.567,366.296,747.944,370.668,737.232,374.166z M796.256,350.557c-19.019,6.558-19.706,6.73-23.079,2.928
		c-3.373-3.802-11.899-14.732-14.085-20.635c-2.186-5.902,11.368-12.242,21.424-14.865c10.056-2.623,22.516-3.716,29.074-2.623
		l5.684,22.516C815.275,337.877,815.275,343.998,796.256,350.557z"/>
	<path fill="#737F83" d="M750.339,361.225c-0.236,5.742-3.228,9.715-13.106,12.941c-8.513,2.78-13.843,3.337-17.322,0.382
		c0.854,1.268,1.829,2.415,3.294,3.093c1.412,0.653,2.834,1.011,4.266,1.185c3.077-0.036,6.218-1.011,9.003-2.128
		c3.663-1.469,10.138-3.633,12.299-7.171C750.048,367.44,750.527,364.302,750.339,361.225z"/>
	<path fill="#737F83" d="M774.934,355.191c0.69,0.915,1.451,1.61,2.271,2.129c8.775-0.827,17.282-3.039,25.294-6.948
		c5.056-2.467,11.287-5.775,14.817-10.609c-0.991-3.682-2.105-7.331-3.389-10.924c-0.988-2.763-1.923-5.696-3.077-8.495
		l4.426,17.533c0,0,0,6.121-19.019,12.679C780.812,355.882,777.456,356.996,774.934,355.191z"/>
	<path fill="#425356" d="M721.274,404.662c0,0,32.572,12.788,90.722-12.133c58.149-24.921,90.284-61.975,90.284-61.975l1.312,2.623
		c0,0-32.135,37.054-90.284,61.975c-58.149,24.921-90.722,12.133-90.722,12.133L721.274,404.662z"/>
	<path fill="#027397" d="M742.315,466.035c0,0,31.425-42.683,102.909-30.878c0,0-40.989-26.123-104.275,19.784L742.315,466.035z"/>
	<path fill="#027397" d="M751.261,478.173c0,0,26.179-29.488,64.326-26.772c15.322,1.116,23.734,0.261,28.797-0.177
		c0.84,2.187,1.502,4.481,1.502,4.481l-5.472,12.571c0,0-40.005-18.035-80.365,13.777c0,0-3.179,8.536-2.244,12.998
		c5.61-3.298,51.611-17.654,71.993-3.686c21.295,14.594,24.683,42.68-4.114,56.26c-28.797,13.58-59.464,8.924-73.676,0.776
		c0,0-1.862-2.445-2.244-3.492c-0.93-2.55-0.935-5.623-0.935-8.924c0,0,23.748,11.252,44.318,7.76
		c20.569-3.492,38.895-10.282,38.521-24.638c-0.374-14.356-21.691-33.368-84.896-7.372c0,0-1.309-1.552-2.244-3.492
		C744.301,502.669,746.492,490.541,751.261,478.173z"/>
	<path fill="#F4F4F4" d="M749.017,474.681c0,0,22.318-25.205,63.528-26.019c21.406-0.181,31.839,2.562,31.839,2.562l-4.932,13.068
		c0,0-40.135-15.144-81.646,14.269c0,0-3.179,8.536-2.244,12.998c5.61-3.298,51.611-17.654,71.993-3.686
		c21.295,14.594,24.683,42.68-4.114,56.26c-28.797,13.58-59.464,8.924-73.676,0.776c0,0-3.179-7.76-3.179-12.416
		c0,0,23.748,11.252,44.318,7.76s38.895-10.282,38.521-24.638c-0.374-14.356-21.691-33.368-84.896-7.372
		C744.529,508.243,742.659,491.171,749.017,474.681z"/>
	<path fill="#627377" d="M801.94,419.418l-13.116,3.607l1.312,14.756c0,0-39.349,28.528-26.233,85.912
		c4.103,17.951,9.683,31.746,15.985,42.41c4.828-0.021,9.646-0.252,14.462-0.557c0.285-0.742,0.789-1.363,1.264-2
		c-7.9-10.951-14.682-25.224-18.267-43.788c-10.493-58.368,27.544-84.273,27.544-84.273L801.94,419.418z"/>
	<path fill="#027397" d="M796.037,586.433c0,0-38.967,6.64-53.613-27.244c0,0,14.226,46.077,76.657,41.032L796.037,586.433z"/>
	<path fill="#8E989B" d="M801.94,419.418l-13.116,3.607l1.312,14.756c0,0-39.349,28.528-26.233,85.912
		c4.171,18.25,9.869,32.197,16.3,42.932c0.455,0.014,0.908,0.026,1.355,0.04c3.428,0.104,6.857,0.096,10.283-0.065
		c0.674-0.032,1.346-0.086,2.019-0.125c0.25-0.322,0.49-0.66,0.732-0.995c0.009-0.021,0.007-0.041,0.019-0.062
		c0.326-0.612,0.759-1.157,1.068-1.778c-7.958-10.973-14.727-25.21-18.332-43.88c-10.493-58.368,27.544-84.273,27.544-84.273
		L801.94,419.418z"/>
	<path fill="#626D70" d="M795.761,563.771c-7.965-10.978-14.808-25.329-18.415-44.013c-10.493-58.368,27.544-84.273,27.544-84.273
		l-2.951-16.068l-3.716,0.656l2.842,14.209c0,0-38.011,26.131-26.889,84.382c3.96,20.739,11.413,36.196,19.839,47.668
		C794.592,565.474,795.164,564.614,795.761,563.771z"/>
	<path fill="#F4F4F4" d="M780.946,484.236l-7.153,1.31c0,0-1.262,10.622-0.841,12.95l8.368-1.601L780.946,484.236z"/>
	<path fill="#F4F4F4" d="M785.423,464.716l-6.02,2.118c0,0,3.325-10.27,7.496-14.33c0,0,6.237-1.601,7.429-1.746
		C795.31,450.831,785.423,464.716,785.423,464.716z"/>
	<path fill="#014C65" d="M903.592,438.371c0,0,16.413,9.586,33.346,10.291c0,0-0.159-12.812-1.669-21.793
		S903.592,438.371,903.592,438.371z"/>
	<path fill="#F4F4F4" d="M787.865,540.69c0,0-4.535,0.242-5.797,0.145c0,0,2.732,7.906,5.444,11.98c0,0,7.085-0.534,8.674-0.97
		C797.286,551.543,787.865,540.69,787.865,540.69z"/>
	<path fill="#DDDDDD" d="M1034.92,350.885c-2.295-22.134-24.265-19.511-24.265-19.511c-18.868-4.987-38.394-2.518-54.858,2.114
		c-22.388,10.441-43.9,22.585-63.121,38.11c-12.746,16.292-12.444,31.436-6.134,47.328c3.856,9.713,9.773,15.825,16.721,18.963
		c4.266,1.203,9.122-0.05,13.685-1.547c0.594-0.195,1.177-0.415,1.765-0.624c1.127-0.526,2.204-1.109,3.595-1.84
		c4.732-2.486,9.474-5.032,14.126-7.663c8.745-4.947,17.368-11.325,27.576-12.678c0.789-0.833,1.233-1.334,1.233-1.334
		c2.459,10.657,10.493,19.675,10.493,19.675l74.927-20.658C1053.61,371.379,1034.92,350.885,1034.92,350.885z"/>
	<path fill="#F4F4F4" d="M947.86,342.851c0,0,6.886,2.295,7.706,8.198s-1.804,13.28-8.69,20.003c0,0,26.069-15.904,46.235-10.657
		c0,0-9.345,27.216,14.1,45.907c0,0,22.462-6.23,37.054-1.803c0,0,2.623-23.609-15.74-51.482c0,0,2.131-14.264-19.347-14.592
		C1009.179,338.424,984.094,329.243,947.86,342.851z"/>
	<path fill="#C9C9C9" d="M989.941,361.924c0,0-32.265,9.19-29.821,52.379c1.241-0.322,2.503-0.576,3.79-0.75l1.219-1.267
		C965.13,412.286,959.118,378.975,989.941,361.924z"/>
	<path fill="#FFFFFF" d="M947.75,342.905c0,0,35.94-14.66,61.472-5.253c0,0,21.379-1.523,19.193,15.091
		c0,0,17.707,19.456,15.958,50.061c0,0-1.53-26.67-19.456-49.186c0,0,5.684-12.023-17.489-13.991
		C1007.43,339.626,988.192,331.101,947.75,342.905z"/>
	<polygon fill="#027397" points="772.952,498.495 775.126,502.278 777.019,497.767 	"/>
	<path fill="#027397" d="M785.124,464.868c0,0-4.353,1.384-5.72,1.966l1.181,2.876L785.124,464.868z"/>
	<path fill="#1190A5" d="M793.799,552.33c0,0-5.61,0.436-6.288,0.485l3.553,3.225L793.799,552.33z"/>
	<path fill="#626D70" d="M1065.36,432.971l-3.279-11.368c0,0-1.968-18.144-38.256-13.991c-36.289,4.154-51.154,19.019-48.531,30.823
		C977.918,450.241,1065.36,432.971,1065.36,432.971z"/>
	<path fill="#425356" d="M977.262,433.19c0,0,24.703-34.103,72.577-18.363c21.314,6.886,31.151,59.352-15.412,63.287
		C987.865,482.048,971.578,442.371,977.262,433.19z"/>
	<path fill="#627377" d="M977.262,433.19c0,0-9.728,13.116-9.4,21.97c0.328,8.854-11.805,15.084,2.623,29.84
		c14.428,14.756,21.314,13.444,25.905,22.954c4.591,9.509,12.461,10.493,34.431,1.312c21.97-9.181,22.626-16.395,26.889-32.135
		s8.854-48.531-15.084-57.384C1018.688,410.892,997.811,408.597,977.262,433.19z"/>
	<path fill="#566668" d="M1022.623,455.97c0,0,20.568,15.228,25.709,33.62C1048.332,489.59,1052.683,463.288,1022.623,455.97z"/>
	<path fill="#027397" d="M902.854,500.493c0,0-19.866,80.802-85.448,84.737c0,0,11.641,8.198,23.063,11.832
		c0,0,16.559-3.607,22.134-7.542c5.574-3.935,46.563-60.007,45.989-81.486C908.019,486.557,902.854,500.493,902.854,500.493z"/>
	<path fill="#02A5DB" d="M742.052,466.035c0,0,15.448-21.205,47.448-29.075v0.71l-1.732,1.913c0,0-23.609,5.124-46.235,29.471
		L742.052,466.035z"/>
	<path fill="#02A5DB" d="M804.563,434.092c0,0,24.101-3.361,40.661,1.066c0,0-29.922-2.131-41.645,1.312l1.312-0.984
		L804.563,434.092z"/>
	<path fill="#2BBFD8" d="M798.005,587.963c0,0-23.172,1.64-35.633-6.558s-16.505-14.975-16.505-14.975s15.79,15.429,27.872,17.926
		c11.504,2.377,12.789,2.049,22.544,2.049L798.005,587.963z"/>
	<path fill="#7C8B8E" d="M578.524,266.393c0,0-6.121,3.17-5.465,7.105s2.623,5.247,6.394,5.574c3.771,0.328,11.641-4.099,14.1-6.558
		c2.459-2.459,4.536-5.957-1.694-7.433C585.629,263.606,581.967,264.098,578.524,266.393z"/>
	<path fill="#627377" d="M551.706,299.944c0,0,5.856,1.285,10.731,7.046c7.178,21.596,21.204,1.582,26.197-5.456
		c-5.411-8.854-10.47-12.008-12.815-13.353c-3.242-1.86-5.303-5.113-8.844-6.578c-2.858-1.182-5.855-1.509-8.883-1.842
		c-2.449,0.222-5.072,0.823-7.646,2.109C538.722,287.73,540.954,303.403,551.706,299.944z"/>
	<path fill="#7C8B8E" d="M547.202,287.463c0,0-4.241,4.583-2.472,7.735s3.849,3.664,7.163,2.784c3.314-0.88,8.659-7.073,9.999-9.925
		c1.339-2.852,2.034-6.471-3.729-5.813C552.4,282.903,549.431,284.448,547.202,287.463z"/>
	<path fill="#7C8B8E" d="M589.007,289.597c0,0,3.071,8.002,3.399,11.609c0,0,17.051-4.919,24.101-4.755
		c0,0-4.591-12.297-10.657-15.084C605.85,281.368,600.364,287.334,589.007,289.597z"/>
	<path fill="#7C8B8E" d="M578.852,295.14c0,0,5.192,4.427,6.504,8.362c0,0-8.198,3.443-17.871,8.362c0,0-1.64-4.755-3.115-6.066
		C564.369,305.797,573.168,301.698,578.852,295.14z"/>
	<path fill="#7C8B8E" d="M620.278,301.152c-27.708-0.055-51.372,14.428-51.372,14.428s-1.749,8.58,6.777,15.794
		c5.227,4.423,4.044,8.658,2.346,11.275c0.002,0.014,0.01,0.023,0.011,0.038c0.593,7.628,10.814,5.631,16.49,3.093
		c6.031-27.758,27.388-28.67,27.388-28.67C626.016,305.469,620.278,301.152,620.278,301.152z"/>
	<path fill="#99A8AA" d="M568.905,315.58c0,0,24.593-15.302,51.372-14.428C620.278,301.152,595.466,304.868,568.905,315.58z"/>
	<path fill="#FFFFFF" d="M649.429,366.972c0,0-22.891-3.396-41.105,14.578c0,0,35.182,55.574,62.371,70.002
		c0,0-27.026-17.051-55.445-69.298C615.25,382.255,623.054,369.835,649.429,366.972z"/>
	<path fill="#FFFFFF" d="M644.215,586.105c0,0,2.295,18.254,24.156,20.877c21.861,2.623,34.977,3.498,40.442-23.828
		c3.716-15.084-1.803-21.11-1.803-21.11s9.127-13.976,28.801-13.211c0,0-21.642-3.826-32.244,12.023c0,0,4.809,8.088,1.967,20.549
		c-2.925,12.823-3.716,27.107-36.726,22.298C646.839,599.44,644.215,586.105,644.215,586.105z"/>
	<path fill="#7C8B8E" d="M1019.18,427.124c0-10.001-9.509-10.001-20.822-6.722c-8.905,2.581-15.86,8.601-18.426,11.053
		c-3.126,2.386-5.184,5.343-5.184,5.343c-8.854,12.133-6.886,20.658-6.886,20.658c1.312-3.279,7.542-13.772,17.379-16.723
		c-7.585,4.876-13.599,17.128-15.463,21.245c-1.181,2.171-2.063,4.195-2.244,5.644c-0.656,5.247,9.181,9.837,26.233,0.656
		c8.124-4.374,13.461-7.858,16.148-11.545c0.191-0.195,0.376-0.378,0.575-0.587c2.142-2.255,4.518-6.682,6.112-11.534
		C1018.627,440.182,1019.18,434.047,1019.18,427.124z"/>
	<path fill="#627377" d="M999.505,441.552c0,0-4.866,0.918-7.415-0.292c-0.19-0.126-0.393-0.248-0.619-0.364
		c-6.394-3.279-13.772,4.263-13.772,4.263s-10.493,18.363-4.427,9.837c6.066-8.526,12.133-13.28,16.396-12.133
		c4.263,1.148,0.055,8.908,0.055,8.908s1.503-1.404,2.711-3.265C993.023,447.868,996.791,443.813,999.505,441.552z"/>
	<path fill="#7C8B8E" d="M564.041,315.47c0,0-15.576,1.476-20.494,8.198s4.263,7.542,12.952,9.509
		c8.69,1.967,18.035,5.738,19.347,2.787c1.312-2.951-14.1-10.985-22.298-11.149c0,0,7.87-0.492,10.165,0.164
		C566.009,325.636,566.665,320.061,564.041,315.47z"/>
	<path fill="#7C8B8E" d="M541.47,339.08c0,0-1.64,1.421-2.669,3.512c-1.02,1.873-1.114,2.741,0.155,4.85
		c1.252,2.08,3.853,3.713,6.066,4.755c5.574,2.623,8.059,3.298,12.903,1.855c1.979-1.374,3.589-3.885,4.203-5.68
		C562.129,348.371,548.794,346.185,541.47,339.08z"/>
	<path fill="#99A8AA" d="M564.041,315.47c0,0-11.641,0.765-18.199,5.793c-6.558,5.028-4.044,8.526,0.547,9.728
		c4.591,1.202,26.998,7.761,29.184,5.574c0.984-0.874,0.109-1.858,0.109-1.858s-1.093,1.53-7.979-0.109
		c-6.886-1.64-15.302-4.263-19.019-5.465s-6.34-2.623-1.53-6.23C551.963,319.296,557.319,317.001,564.041,315.47z"/>
	<path fill="#7C8B8E" d="M626.535,316.115c-0.025,0.132-0.051,0.295-0.077,0.442c4.989-0.643,10.042-0.079,15.105,0.67
		c0.339-2.085,0.604-4.146,0.761-6.03c1.082-5.529,1.57-11.731-0.206-14.417c-2.71-4.099-6.695-5.574-10.839-4.591
		s-4.941,2.459-3.985,4.427c0,0,2.391,3.115,0.797,9.345C626.951,310.415,626.627,314.272,626.535,316.115z"/>
	<path fill="#99A8AA" d="M627.738,307.355c0,0,1.23-5.41,0.492-8.034c-0.738-2.623-3.689-5.41,1.885-6.886
		c5.574-1.476,12.87,0.082,13.362,9.591c0,7.132-1.64,14.51-1.64,14.51s1.066-13.936-0.656-17.953
		c-1.721-4.017-5.165-5.165-8.116-4.837c-2.951,0.328-4.755,0.574-3.771,3.279C630.279,299.731,627.738,307.355,627.738,307.355z"/>
	<path fill="#99A8AA" d="M573.551,275.629c0,0-3.607-5.902,5.902-10.001c9.509-4.099,15.33,0.164,15.822,0.984
		c0,0-6.558-3.361-15.248,0.738C571.337,271.448,573.551,275.629,573.551,275.629z"/>
	<path fill="#99A8AA" d="M545.842,296.943c0,0-5.083-4.673,2.623-11.231s13.444-3.689,14.1-2.377c0,0-4.755-1.558-12.461,4.099
		S545.842,296.943,545.842,296.943z"/>
	<path fill="#99A8AA" d="M1010.982,418.598c4.591,0.492,8.198,2.623,7.378,14.264c-0.541,7.675-3.532,14.519-4.655,16.853
		c-3.784,5.172-10.651,12.125-22.233,16.758c-13.456,5.382-26.943,8.198-18.855-6.23c8.089-14.428,9.018-14.155,13.608-17.215
		c0,0-9.4,3.498-16.177,17.051c-6.777,13.554,0.656,19.456,22.954,9.181c7.586-3.496,12.866-7.674,16.536-11.667
		c3.955-3.585,8.411-8.69,10.298-24.075C1021.967,416.139,1010.982,418.598,1010.982,418.598z"/>
	<path fill="#425356" d="M619.622,690.271c0,0-26.233-13.116-14.428-47.656s41.972-52.028,80.447-38.038l40.661,8.744
		c0,0,19.237,17.489,18.363,49.842L619.622,690.271z"/>
	<path fill="#142B2A" d="M621.808,691.145c0,0-17.051-9.619-6.558-31.479c10.493-21.861,20.549-35.414,64.27-26.67
		c43.721,8.744,66.019,12.679,65.145,30.168c-0.874,17.488-17.051,34.54-71.266,17.051
		C673.399,680.215,646.292,701.638,621.808,691.145z"/>
	<path fill="#99A8AA" d="M862.126,261.591c-7.943,1.427-16.695-3.995-20.145-11.176c-3.156-6.568-3.618-16.628,1.348-22.521
		l-0.271-0.485c-0.675,0.351-1.343,0.715-2.016,1.072c-1.324,0.918-2.732,1.726-4.185,2.44c-1.206,2.127-4.963,10.414,1.645,22.083
		c7.706,13.608,19.292,11.75,19.292,11.75l4.481-2.897L862.126,261.591z"/>
	<path fill="#627377" d="M604.866,674.203c0,0-12.461-23.282,7.214-47.875c19.675-24.593,30.696-31.874,62.631-25.249
		c30.824,6.394,35.086,8.854,35.086,8.854s-47.531-7.471-61.647-4.263c-14.428,3.279-26.889,15.084-36.398,30.823
		C602.243,652.233,601.915,664.366,604.866,674.203z"/>
	<path fill="#425356" d="M845.333,228.902l-2.213,2.371c0,0-4.018,8.341,0.245,17.194c4.591,8.416,11.367,12.679,16.286,11.477
		c1.967-0.656,2.405-1.202,2.405-1.202l1.312-1.858c0,0,1.749,1.53-0.328,4.263s-9.947,1.749-13.991-1.202
		c-4.044-2.951-8.198-6.667-10.165-15.63c-2.069-9.425,1.421-15.521,4.154-16.942c2.295-1.421,3.826-0.547,3.826-0.547
		L845.333,228.902z"/>
	<path fill="#7C8B8E" d="M689.508,320.348c0,0-5.451,3.894-1.353,13.895c4.099,10.001,9.018,8.444,9.018,8.444l-3.607,0.902
		c0,0-5.165,0.082-8.362-10.329c-2.623-9.919,0.779-12.051,0.779-12.051L689.508,320.348z"/>
	<path fill="#707070" d="M690.232,332.631c-3.187-8.06,0.39-10.624,1.476-11.193c0.3-0.14,0.431-0.206,0.629-0.221
		c0.165-0.013,0.163-0.019,0.326-0.036l0.169-0.063c-0.191-0.276-0.296-0.482-0.517-0.895c-0.801-0.294-1.692-0.254-2.776,0.03
		c-2.96,2.016-4.56,5.53-1.821,13.035c4.208,11.532,10.384,9.4,10.384,9.4l1.565-0.573c0.232-0.19,0.42-0.408,0.586-0.644
		C697.918,341.398,693.239,340.237,690.232,332.631z"/>
	<g>
		<circle opacity="0.1" fill="#FFFFFF" cx="737.67" cy="384.659" r="6.401"/>
		<circle fill="#FFFFFF" cx="737.67" cy="384.659" r="1.201"/>
	</g>
	<path fill="#02A5DB" d="M883.425,377.773c0,0-13.936,16.232-1.148,44.924c9.837,18.363,18.691,20.658,18.691,20.658l-0.984,2.131
		c0,0-10.985-4.263-19.511-21.806c-7.575-15.587-9.018-32.135,1.967-47.711L883.425,377.773z"/>
	<path fill="#929DA0" d="M701.599,357.333c0,0,1.476-11.367,16.723-19.401s22.298-9.673,26.889-9.181l6.394-2.787
		c0,0,4.919-15.412,47.711-18.527c20.658-1.967,36.835-0.656,39.568,0.492c0,0-46.29-1.148-68.916,8.854
		c-15.576,6.886-17.379,13.936-17.379,13.936l-4.591,2.131c0,0-8.362-4.591-28.364,7.706
		c-20.003,12.297-16.232,20.713-16.232,20.713s-0.922-1.451-1.257-2.241C701.811,358.238,701.599,357.333,701.599,357.333z"/>
	<path fill="#C9C9C9" d="M971.868,617.169c0,0,8.892-48.88-17.128-82.108c0,0,17.877,12.898,21.511,44.377
		C979.885,610.917,971.868,617.169,971.868,617.169z"/>
	<path fill="#F4F4F4" d="M954.09,611.135c0,0,0-23.937-47.219-55.526l-2.242,2.777C904.629,558.386,945.783,584.684,954.09,611.135z
		"/>
	<path fill="#027397" d="M797.021,589.111c0,0,0.82-1.394,3.525-1.885s17.051-3.271,22.462-1.021s18.276,10.674,18.276,10.674
		s-10.051,2.892-23.878,3.547C803.579,601.08,797.021,589.111,797.021,589.111z"/>
	<path fill="#02A5DB" d="M786.5,586.371c0,0,14.172,1.192,38.9-4.346l1.059,1.998c0,0-18.96,5.047-39.96,3.92V586.371z"/>
	<polygon fill="#627377" points="672.44,322.356 690.101,355.65 694.343,352.557 675.913,317.875 	"/>
	<path fill="#DDDDDD" d="M691.239,411.121c0,0-35.765,14.379-15.653,65.379h3.06c0,0-20.634-45.695,16.339-64.535L691.239,411.121z"
		/>
	<path fill="#DDDDDD" d="M679.69,403.892c-0.041-0.467-0.046-0.936-0.011-1.407c-0.096-0.513-0.147-1.039-0.178-1.573
		c-9.724-0.754-35.57,1.624-46.145,45.547l2.522,1.734C635.877,448.194,643.869,403.942,679.69,403.892z"/>
	<path fill="#DDDDDD" d="M666.222,386.761c0.053-0.465,0.142-0.926,0.27-1.38c0.008-0.522,0.064-1.048,0.14-1.577
		c-9.378-2.682-35.178-5.516-54.315,35.409l2.125,2.203C614.442,421.415,631.114,379.652,666.222,386.761z"/>
	<path fill="#DDDDDD" d="M997.664,398.759c0,0,24.836-14.428,47.836-6.476v-2.869c0,0-19.573-9.611-50.168,6.64L997.664,398.759z"/>
	<path fill="#DDDDDD" d="M991.471,384.741c0,0,25.422-19.417,49.027-10.077l1.471-2.465c0,0-19.99-12.564-51.415,9.734
		L991.471,384.741z"/>
	<path fill="#DDDDDD" d="M990.488,371.297c25.077-21.613,46.557-9.95,43.612-11.34l-0.164-2.514c0,0-16.778-10.705-44.323,10.657
		L990.488,371.297z"/>
	<path fill="#DDDDDD" d="M993.111,360.394c0,0,7.76-20.904,19.347-23.855l-3.935-1.143c0,0-11.313,3.357-18.582,25.403
		L993.111,360.394z"/>
	<path fill="#DDDDDD" d="M984.831,333.5c0,0-9.867,7.135-4.121,26.235l-2.335,1.31c0,0-6.578-18.546,2.849-27.546H984.831z"/>
	<path fill="#DDDDDD" d="M966.468,364.257c0,0-8.505-8.757-5.65-24.757h-2.732c0,0-3.104,13.675,5.836,25.956L966.468,364.257z"/>
	<path fill="#DDDDDD" d="M643.493,589.712c0,0,23.785-17.707,68.163,4.372l-0.874-3.498c0,0-31.042-21.423-68.553-6.57
		L643.493,589.712z"/>
	<path fill="#DDDDDD" d="M647.679,562.067c0,0,42.019-14.764,63.442,8.517l2.447-3.443c0,0-17.854-22.626-64.024-9.591
		L647.679,562.067z"/>
	<path fill="#DDDDDD" d="M662.906,543.04c0,0,38.147-10.602,49.678,15.412l2.541-1.066c0,0-7.34-27.074-49.728-17.103
		C665.398,540.283,664.177,541.277,662.906,543.04z"/>
	<path fill="#DDDDDD" d="M692.334,528.981c0,0,29.103-2.774,34.906,22.475l2.669-0.874c0,0-3.856-23.505-30.536-22.464
		C699.373,528.117,696.484,528.238,692.334,528.981z"/>
	
		<circle opacity="0.1" fill="#FFFFFF" stroke="#FFFFFF" stroke-miterlimit="10" enable-background="new    " cx="520.933" cy="235.839" r="105.08"/>
	
		<circle opacity="0.1" fill="#FFFFFF" stroke="#FFFFFF" stroke-miterlimit="10" enable-background="new    " cx="520.933" cy="235.839" r="87.932"/>
	<g>
		<g>
			<path fill="#5B5A5C" d="M537.016,304.028c-1.327,3.632-5.348,5.5-8.981,4.173l-59.194-21.639c-3.632-1.327-5.5-5.348-4.173-8.981
				l40.19-109.934c1.327-3.632,5.348-5.5,8.981-4.173l59.194,21.639c3.632,1.327,5.5,5.348,4.173,8.981L537.016,304.028
				L537.016,304.028L537.016,304.028L537.016,304.028z"/>
			<path fill="#737F83" d="M467.598,288.218c-4.323-1.909-6.436-6.885-4.811-11.324l40.19-109.934
				c0.825-2.259,2.481-4.061,4.664-5.075c2.18-1.014,4.626-1.115,6.883-0.29l59.194,21.639c4.701,1.707,7.057,6.922,5.364,11.548
				l-40.19,109.934c-0.825,2.259-2.482,4.061-4.664,5.075c-2.18,1.014-4.626,1.115-6.887,0.29l-59.194-21.639
				C467.965,288.371,467.779,288.298,467.598,288.218C467.598,288.218,467.779,288.298,467.598,288.218L467.598,288.218
				L467.598,288.218z M572.653,187.117c-0.099-0.045-0.206-0.086-0.309-0.124l-59.195-21.639c-1.256-0.458-2.614-0.4-3.825,0.161
				c-1.211,0.563-2.131,1.563-2.59,2.818l-40.19,109.934c-0.939,2.571,0.361,5.474,2.981,6.417l59.194,21.639
				c1.256,0.458,2.614,0.4,3.825-0.161s2.131-1.563,2.59-2.818l40.19-109.934C576.228,190.94,575.056,188.178,572.653,187.117
				C572.653,187.117,575.056,188.178,572.653,187.117L572.653,187.117L572.653,187.117z"/>
			
				<rect id="Rectangle_1_" x="491.777" y="191.379" transform="matrix(-0.9392 -0.3434 0.3434 -0.9392 930.2073 634.507)" fill="#737F83" width="59.014" height="87.025"/>
			<path id="Shape_1_" fill="#3F3F3F" d="M547.208,188.738c-0.165,0.445-0.582,0.571-1.49,0.24l-15.377-5.622
				c-0.908-0.331-1.149-0.696-0.984-1.143l0.137-0.378c0.165-0.445,0.623-0.689,1.533-0.357l15.377,5.622
				c0.908,0.331,1.106,0.814,0.941,1.261L547.208,188.738L547.208,188.738L547.208,188.738L547.208,188.738z"/>
			<circle id="Oval_1_" fill="#3F3F3F" cx="502.569" cy="285.71" r="6.376"/>
		</g>
		
			<rect x="506.295" y="197.609" transform="matrix(-0.9373 -0.3485 0.3485 -0.9373 962.6044 574.8581)" fill="#E8F6FD" width="53.426" height="6.477"/>
		
			<rect x="498.678" y="205.954" transform="matrix(-0.9373 -0.3485 0.3485 -0.9373 940.7085 611.8945)" fill="#E8F6FD" width="53.426" height="30.762"/>
		
			<rect x="490.536" y="231.79" transform="matrix(-0.9373 -0.3485 0.3485 -0.9373 882.401 638.504)" fill="#E8F6FD" width="16.189" height="16.189"/>
		
			<rect x="508.187" y="241.664" transform="matrix(-0.9373 -0.3485 0.3485 -0.9373 930.407 666.8892)" fill="#E8F6FD" width="34" height="16.189"/>
		
			<rect x="483.483" y="249.95" transform="matrix(-0.9373 -0.3485 0.3485 -0.9373 862.1263 672.7955)" fill="#E8F6FD" width="16.189" height="17.808"/>
		
			<rect x="501.135" y="259.823" transform="matrix(-0.9373 -0.3485 0.3485 -0.9373 910.134 701.1776)" fill="#E8F6FD" width="33.999" height="17.808"/>
	</g>
</g>
<g>
	
		<circle opacity="0.1" fill="#FFFFFF" stroke="#FFFFFF" stroke-miterlimit="10" enable-background="new    " cx="336.321" cy="528.084" r="171.886"/>
	
		<circle opacity="0.1" fill="#FFFFFF" stroke="#FFFFFF" stroke-miterlimit="10" enable-background="new    " cx="336.321" cy="528.084" r="153.289"/>
	<g>
		<g>
			<path id="Shape_2_" fill="#5B5A5D" d="M405.436,451.776c-0.026-0.014-0.06-0.014-0.09-0.024
				c0.464-4.946-4.071-16.175-49.254-24.993c-49.252-9.608-54.674,0.796-55.065,4.731c-0.07-0.008-0.139-0.035-0.213-0.028
				l-33.742,173.614l0.068-0.021c-0.664,4.408,3.012,15.3,49.407,24.354c50.037,9.764,54.999-1.962,55.294-6.017L405.436,451.776
				L405.436,451.776L405.436,451.776L405.436,451.776z"/>
			
				<rect id="Rectangle_13_" x="288.953" y="449.247" transform="matrix(-0.9815 -0.1915 0.1915 -0.9815 565.892 1108.3701)" fill="#3F3F3F" width="95.115" height="155.18"/>
			
				<rect id="Rectangle_12_" x="289.431" y="454.295" transform="matrix(-0.9815 -0.1915 0.1915 -0.9815 567.3116 1103.5865)" fill="#737F83" width="95.115" height="140.164"/>
			
				<rect id="Rectangle_11_" x="301.417" y="455.471" transform="matrix(-0.9815 -0.1915 0.1915 -0.9815 602.8193 984.2228)" fill="#8C989B" width="95.115" height="15.016"/>
			
				<rect id="Rectangle_10_" x="280.673" y="586.833" transform="matrix(-0.9815 -0.1915 0.1915 -0.9815 462.6382 1228.3917)" fill="#5B5A5C" width="20.022" height="10.01"/>
			
				<rect id="Rectangle_9_" x="310.149" y="592.59" transform="matrix(-0.9815 -0.1915 0.1915 -0.9815 519.9421 1245.4449)" fill="#5B5A5C" width="20.022" height="10.01"/>
			
				<rect id="Rectangle_2_" x="339.623" y="598.333" transform="matrix(-0.9815 -0.1915 0.1915 -0.9815 577.2455 1262.4694)" fill="#5B5A5C" width="20.022" height="10.01"/>
		</g>
		
			<rect x="304.029" y="469.57" transform="matrix(-0.9824 -0.1867 0.1867 -0.9824 533.0496 1001.9091)" fill="#E8F6FD" width="19.364" height="12.56"/>
		
			<rect x="297.975" y="492.977" transform="matrix(-0.9824 -0.1867 0.1867 -0.9824 579.0758 1076.0776)" fill="#E8F6FD" width="84.485" height="35.579"/>
		
			<rect x="292.048" y="526.88" transform="matrix(-0.9824 -0.1867 0.1867 -0.9824 502.9863 1125.6761)" fill="#E8F6FD" width="24.922" height="24.538"/>
		
			<rect x="321.305" y="532.441" transform="matrix(-0.9824 -0.1867 0.1867 -0.9824 559.9481 1142.1621)" fill="#E8F6FD" width="24.922" height="24.538"/>
		
			<rect x="327.273" y="477.893" transform="matrix(-0.9824 -0.1867 0.1867 -0.9824 618.3058 1026.5856)" fill="#E8F6FD" width="60.458" height="12.56"/>
		
			<rect x="350.564" y="538.001" transform="matrix(-0.9824 -0.1867 0.1867 -0.9824 616.9136 1158.649)" fill="#E8F6FD" width="24.922" height="24.538"/>
		
			<rect x="287.962" y="561.974" transform="matrix(-0.9824 -0.1867 0.1867 -0.9824 549.3868 1178.6589)" fill="#E8F6FD" width="84.485" height="2.963"/>
		
			<rect x="286.491" y="569.713" transform="matrix(-0.9824 -0.1867 0.1867 -0.9824 545.0255 1193.7267)" fill="#E8F6FD" width="84.485" height="2.963"/>
		
			<rect x="285.02" y="577.451" transform="matrix(-0.9824 -0.1867 0.1867 -0.9824 540.6652 1208.791)" fill="#E8F6FD" width="84.485" height="2.963"/>
		
			<rect x="283.549" y="585.188" transform="matrix(-0.9824 -0.1867 0.1867 -0.9824 536.3046 1223.8558)" fill="#E8F6FD" width="84.485" height="2.963"/>
	</g>
</g>
</svg>
